<?xml version="1.0" encoding="UTF-8"?>
<svg version="1.1" xmlns="http://www.w3.org/2000/svg" width="800" height="800">
<path d="M0 0 C1.12061325 -0.0004985 2.2412265 -0.00099701 3.39579773 -0.00151062 C5.74280591 0.00081162 8.08981746 0.01042932 10.43676758 0.02709961 C14.01992059 0.05083558 17.60233436 0.04762807 21.18554688 0.04101562 C23.47786899 0.04658906 25.77018801 0.05369682 28.0625 0.0625 C29.65799431 0.06113289 29.65799431 0.06113289 31.28572083 0.05973816 C36.7995221 0.1122004 41.43010776 0.56047436 46.69921875 2.36328125 C48.60410906 2.8529225 50.51163597 3.33244111 52.421875 3.80078125 C53.45505859 4.05601563 54.48824219 4.31125 55.55273438 4.57421875 C57.69574102 5.10116621 59.83897133 5.62720487 61.98242188 6.15234375 C66.9592333 7.38333521 71.86984286 8.62236239 76.69921875 10.36328125 C76.69921875 11.02328125 76.69921875 11.68328125 76.69921875 12.36328125 C77.37339844 12.46511719 78.04757812 12.56695312 78.7421875 12.671875 C82.35790018 13.51729263 85.63191895 14.92558175 89.01171875 16.42578125 C89.65689453 16.70744141 90.30207031 16.98910156 90.96679688 17.27929688 C92.54620233 17.96955555 94.12298368 18.66581323 95.69921875 19.36328125 C95.69921875 20.02328125 95.69921875 20.68328125 95.69921875 21.36328125 C96.33859375 21.59015625 96.97796875 21.81703125 97.63671875 22.05078125 C101.83242136 23.84893951 105.73822431 26.10232146 109.69921875 28.36328125 C109.69921875 29.02328125 109.69921875 29.68328125 109.69921875 30.36328125 C110.37984375 30.59015625 111.06046875 30.81703125 111.76171875 31.05078125 C117.73096436 33.71789099 122.16111045 37.7088112 126.69921875 42.36328125 C127.64796875 43.12640625 128.59671875 43.88953125 129.57421875 44.67578125 C132.68381482 47.22215966 135.22880386 50.11911853 137.828125 53.17578125 C140.48066972 56.27687737 143.24463983 59.27537186 146 62.28515625 C147.61004437 64.25422201 148.58821486 66.09419703 149.69921875 68.36328125 C150.90578125 69.53890625 150.90578125 69.53890625 152.13671875 70.73828125 C155.06517762 73.73816595 157.69921875 77.00236034 157.69921875 81.36328125 C158.35921875 81.36328125 159.01921875 81.36328125 159.69921875 81.36328125 C160.87054933 83.81948976 162.03643597 86.27803042 163.19921875 88.73828125 C163.53308594 89.43695313 163.86695313 90.135625 164.2109375 90.85546875 C166.69921875 96.13671875 166.69921875 96.13671875 166.69921875 98.36328125 C167.35921875 98.36328125 168.01921875 98.36328125 168.69921875 98.36328125 C169.80599083 101.6540775 170.90914109 104.94607753 172.01171875 108.23828125 C172.32044922 109.15609375 172.62917969 110.07390625 172.94726562 111.01953125 C183.87358873 143.68348664 188.2523816 183.33380947 175.51293945 216.24633789 C174.09958396 219.92326723 172.81609922 223.64660209 171.51171875 227.36328125 C171.23908203 228.13800781 170.96644531 228.91273438 170.68554688 229.7109375 C170.02270793 231.59479554 169.36085789 233.47900149 168.69921875 235.36328125 C168.03921875 235.36328125 167.37921875 235.36328125 166.69921875 235.36328125 C166.44398438 236.18119141 166.44398438 236.18119141 166.18359375 237.015625 C164.37381061 242.64713103 162.19576497 248.00267694 159.69921875 253.36328125 C159.03921875 253.36328125 158.37921875 253.36328125 157.69921875 253.36328125 C157.5290625 253.89695312 157.35890625 254.430625 157.18359375 254.98046875 C155.26458551 260.88039835 153.05867636 266.62632594 150.69921875 272.36328125 C150.03921875 272.36328125 149.37921875 272.36328125 148.69921875 272.36328125 C148.56966797 273.34361328 148.56966797 273.34361328 148.4375 274.34375 C147.44579633 278.39976554 145.70240141 281.92908218 143.88671875 285.67578125 C143.54318359 286.39701172 143.19964844 287.11824219 142.84570312 287.86132812 C140.8147302 292.10998631 138.72728263 296.3279286 136.59790039 300.52807617 C135.17927806 303.42505636 133.93967558 306.38618486 132.69921875 309.36328125 C132.03921875 309.36328125 131.37921875 309.36328125 130.69921875 309.36328125 C130.56966797 310.34554687 130.56966797 310.34554687 130.4375 311.34765625 C129.44885028 315.38595034 127.70259359 318.887057 125.88671875 322.61328125 C125.15029934 324.14808154 124.41461302 325.68323381 123.6796875 327.21875 C123.33083496 327.94497559 122.98198242 328.67120117 122.62255859 329.41943359 C121.60140367 331.56920502 120.63773088 333.73875071 119.69921875 335.92578125 C116.17264038 343.97761506 112.02615213 351.76481767 108.05859375 359.60546875 C101.77733011 371.72682069 101.77733011 371.72682069 96.69921875 384.36328125 C96.03921875 384.36328125 95.37921875 384.36328125 94.69921875 384.36328125 C94.32925781 385.5853125 93.95929688 386.80734375 93.578125 388.06640625 C91.48547055 394.34314079 88.55178037 400.18540745 85.63671875 406.11328125 C84.56108214 408.31571435 83.4868108 410.51881488 82.4140625 412.72265625 C81.940896 413.68655273 81.46772949 414.65044922 80.98022461 415.64355469 C79.78882694 418.1730325 78.73763176 420.76724873 77.69921875 423.36328125 C154.42421875 423.85828125 154.42421875 423.85828125 232.69921875 424.36328125 C238.69921875 437.36328125 238.69921875 437.36328125 238.69921875 439.36328125 C239.35921875 439.69328125 240.01921875 440.02328125 240.69921875 440.36328125 C241.78962994 442.41105612 242.79866812 444.50261501 243.76171875 446.61328125 C244.28894531 447.7528125 244.81617188 448.89234375 245.359375 450.06640625 C246.69921875 453.36328125 246.69921875 453.36328125 247.2578125 456.22265625 C247.40347656 456.9290625 247.54914062 457.63546875 247.69921875 458.36328125 C248.35921875 458.69328125 249.01921875 459.02328125 249.69921875 459.36328125 C250.84765625 461.33203125 250.84765625 461.33203125 252.07421875 463.86328125 C252.51507812 464.77078125 252.9559375 465.67828125 253.41015625 466.61328125 C254.87548568 469.73931737 256.27543035 472.88891531 257.65234375 476.0546875 C259.22858918 479.53066157 260.98673139 482.91063239 262.74609375 486.296875 C263.69921875 488.36328125 263.69921875 488.36328125 263.69921875 490.36328125 C264.35921875 490.69328125 265.01921875 491.02328125 265.69921875 491.36328125 C266.40040088 493.35144323 267.05981738 495.35439839 267.69921875 497.36328125 C268.73186579 499.71738955 269.78502978 502.04245506 270.88671875 504.36328125 C271.19496582 505.01844727 271.50321289 505.67361328 271.82080078 506.34863281 C274.40449847 511.81025711 277.11315854 517.20611066 279.83203125 522.6015625 C282.32366888 527.58616734 284.69270353 532.62869128 287.06396484 537.67138672 C289.24212847 542.30033096 291.44655387 546.91479874 293.68359375 551.515625 C294.1847168 552.55017822 294.68583984 553.58473145 295.20214844 554.65063477 C296.1826402 556.67285906 297.16750618 558.6929697 298.15722656 560.71069336 C298.60420898 561.63503174 299.05119141 562.55937012 299.51171875 563.51171875 C299.91003906 564.32817871 300.30835938 565.14463867 300.71875 565.98583984 C301.73046301 568.43904235 302.26716487 570.75063286 302.69921875 573.36328125 C303.35921875 573.36328125 304.01921875 573.36328125 304.69921875 573.36328125 C305.87265035 575.96458752 307.03814383 578.56896633 308.19921875 581.17578125 C308.53308594 581.91376953 308.86695313 582.65175781 309.2109375 583.41210938 C309.68466797 584.48041992 309.68466797 584.48041992 310.16796875 585.5703125 C310.46123047 586.22491455 310.75449219 586.8795166 311.05664062 587.55395508 C311.69921875 589.36328125 311.69921875 589.36328125 311.69921875 592.36328125 C312.35921875 592.36328125 313.01921875 592.36328125 313.69921875 592.36328125 C314.8701588 595.15322515 316.03612802 597.94506722 317.19921875 600.73828125 C317.53308594 601.53234375 317.86695313 602.32640625 318.2109375 603.14453125 C318.68466797 604.28535156 318.68466797 604.28535156 319.16796875 605.44921875 C319.46123047 606.15095215 319.75449219 606.85268555 320.05664062 607.57568359 C320.69921875 609.36328125 320.69921875 609.36328125 320.69921875 611.36328125 C321.35921875 611.36328125 322.01921875 611.36328125 322.69921875 611.36328125 C323.8701588 614.15322515 325.03612802 616.94506722 326.19921875 619.73828125 C326.53308594 620.53234375 326.86695313 621.32640625 327.2109375 622.14453125 C327.68466797 623.28535156 327.68466797 623.28535156 328.16796875 624.44921875 C328.46123047 625.15095215 328.75449219 625.85268555 329.05664062 626.57568359 C329.69921875 628.36328125 329.69921875 628.36328125 329.69921875 630.36328125 C330.35921875 630.36328125 331.01921875 630.36328125 331.69921875 630.36328125 C332.53712664 632.1528131 333.36941271 633.9449782 334.19921875 635.73828125 C334.66328125 636.73601563 335.12734375 637.73375 335.60546875 638.76171875 C336.69921875 641.36328125 336.69921875 641.36328125 336.69921875 643.36328125 C337.35921875 643.69328125 338.01921875 644.02328125 338.69921875 644.36328125 C339.41953194 646.0074744 340.07113018 647.68169659 340.69921875 649.36328125 C341.26687558 650.67270813 341.84308692 651.9784452 342.42578125 653.28125 C342.73515625 653.97798828 343.04453125 654.67472656 343.36328125 655.39257812 C344.00955402 656.84406474 344.65803044 658.29457198 345.30859375 659.74414062 C347.69921875 665.14313616 347.69921875 665.14313616 347.69921875 667.36328125 C348.35921875 667.36328125 349.01921875 667.36328125 349.69921875 667.36328125 C350.02921875 670.00328125 350.35921875 672.64328125 350.69921875 675.36328125 C128.27921875 675.36328125 -94.14078125 675.36328125 -323.30078125 675.36328125 C-323.30078125 669.36328125 -323.30078125 669.36328125 -322.30078125 667.36328125 C-321.64078125 667.36328125 -320.98078125 667.36328125 -320.30078125 667.36328125 C-320.04554688 666.56277344 -320.04554688 666.56277344 -319.78515625 665.74609375 C-317.86614801 659.84616415 -315.66023886 654.10023656 -313.30078125 648.36328125 C-312.64078125 648.36328125 -311.98078125 648.36328125 -311.30078125 648.36328125 C-311.04554688 647.54537109 -311.04554688 647.54537109 -310.78515625 646.7109375 C-308.97537311 641.07943147 -306.79732747 635.72388556 -304.30078125 630.36328125 C-303.64078125 630.36328125 -302.98078125 630.36328125 -302.30078125 630.36328125 C-302.04554688 629.43708984 -302.04554688 629.43708984 -301.78515625 628.4921875 C-300.07892701 622.52946085 -297.96497008 616.96213494 -295.30078125 611.36328125 C-294.64078125 611.36328125 -293.98078125 611.36328125 -293.30078125 611.36328125 C-293.130625 610.82960938 -292.96046875 610.2959375 -292.78515625 609.74609375 C-290.86614801 603.84616415 -288.66023886 598.10023656 -286.30078125 592.36328125 C-285.64078125 592.36328125 -284.98078125 592.36328125 -284.30078125 592.36328125 C-284.14802734 591.35201172 -284.14802734 591.35201172 -283.9921875 590.3203125 C-283.14676987 586.70459982 -281.73848075 583.43058105 -280.23828125 580.05078125 C-279.95662109 579.40560547 -279.67496094 578.76042969 -279.38476562 578.09570312 C-278.69450695 576.51629767 -277.99824927 574.93951632 -277.30078125 573.36328125 C-276.64078125 573.36328125 -275.98078125 573.36328125 -275.30078125 573.36328125 C-275.16542969 572.35201172 -275.16542969 572.35201172 -275.02734375 571.3203125 C-274.11261212 567.59745314 -272.44525342 564.42159688 -270.67578125 561.05078125 C-267.81487033 555.47851581 -265.14012759 549.87200362 -262.67578125 544.11328125 C-260.18478355 538.29412411 -257.4709522 532.64286716 -254.58984375 527.00390625 C-252.89345861 523.528887 -251.56496652 520.01537204 -250.30078125 516.36328125 C-249.64078125 516.36328125 -248.98078125 516.36328125 -248.30078125 516.36328125 C-247.73810547 514.51669922 -247.73810547 514.51669922 -247.1640625 512.6328125 C-245.12518535 506.52334759 -242.31533117 500.82749167 -239.48828125 495.05078125 C-238.97974609 493.99955078 -238.47121094 492.94832031 -237.94726562 491.86523438 C-234.89783292 485.57698721 -231.78541646 479.32300576 -228.62158203 473.09155273 C-226.91668228 469.56987902 -225.46287703 465.9758348 -224.0625 462.32421875 C-223.30078125 460.36328125 -223.30078125 460.36328125 -222.30078125 458.36328125 C-221.64078125 458.36328125 -220.98078125 458.36328125 -220.30078125 458.36328125 C-220.130625 457.82960938 -219.96046875 457.2959375 -219.78515625 456.74609375 C-217.86614801 450.84616415 -215.66023886 445.10023656 -213.30078125 439.36328125 C-212.64078125 439.36328125 -211.98078125 439.36328125 -211.30078125 439.36328125 C-211.11902344 438.78320312 -210.93726563 438.203125 -210.75 437.60546875 C-210.37294922 436.43371094 -210.37294922 436.43371094 -209.98828125 435.23828125 C-209.74464844 434.47257812 -209.50101562 433.706875 -209.25 432.91796875 C-208.15609278 429.97387278 -206.70536903 427.1724568 -205.30078125 424.36328125 C-154.15078125 424.03328125 -103.00078125 423.70328125 -50.30078125 423.36328125 C-56.58788274 409.23534962 -56.58788274 409.23534962 -63.3046875 395.484375 C-64.98912736 391.89750895 -66.17373919 388.15673989 -67.30078125 384.36328125 C-67.96078125 384.36328125 -68.62078125 384.36328125 -69.30078125 384.36328125 C-69.88085938 382.86087891 -69.88085938 382.86087891 -70.47265625 381.328125 C-70.99841372 379.98556575 -71.52447152 378.64312409 -72.05078125 377.30078125 C-72.3034375 376.64400391 -72.55609375 375.98722656 -72.81640625 375.31054688 C-74.36352226 371.38474 -76.12670269 367.76847101 -78.27441406 364.13842773 C-80.1011797 360.97895748 -81.68566414 357.6970243 -83.30078125 354.42578125 C-83.63078125 353.76126953 -83.96078125 353.09675781 -84.30078125 352.41210938 C-84.96738512 351.0697879 -85.63275051 349.72685068 -86.296875 348.38330078 C-86.9708098 347.02723646 -87.65058848 345.67406201 -88.3359375 344.32373047 C-90.49492054 340.06425396 -92.42284574 335.75622407 -94.30078125 331.36328125 C-95.04722781 329.78161419 -95.8017131 328.20372574 -96.5625 326.62890625 C-96.95888672 325.80777344 -97.35527344 324.98664063 -97.76367188 324.140625 C-98.58843939 322.43847322 -99.41663492 320.73797871 -100.24804688 319.0390625 C-100.64056641 318.22308594 -101.03308594 317.40710938 -101.4375 316.56640625 C-101.79545654 315.83067383 -102.15341309 315.09494141 -102.5222168 314.33691406 C-103.30078125 312.36328125 -103.30078125 312.36328125 -103.30078125 309.36328125 C-103.96078125 309.36328125 -104.62078125 309.36328125 -105.30078125 309.36328125 C-105.78546875 308.24953125 -106.27015625 307.13578125 -106.76953125 305.98828125 C-110.56452022 297.3302468 -114.46814779 288.77803839 -118.86132812 280.40429688 C-120.35277254 277.51443577 -121.30078125 275.6661713 -121.30078125 272.36328125 C-121.96078125 272.36328125 -122.62078125 272.36328125 -123.30078125 272.36328125 C-124.4717213 269.57333735 -125.63769052 266.78149528 -126.80078125 263.98828125 C-127.13464844 263.19421875 -127.46851563 262.40015625 -127.8125 261.58203125 C-128.28623047 260.44121094 -128.28623047 260.44121094 -128.76953125 259.27734375 C-129.06279297 258.57561035 -129.35605469 257.87387695 -129.65820312 257.15087891 C-130.30078125 255.36328125 -130.30078125 255.36328125 -130.30078125 253.36328125 C-130.96078125 253.36328125 -131.62078125 253.36328125 -132.30078125 253.36328125 C-133.47191071 250.74019026 -134.63784089 248.11499983 -135.80078125 245.48828125 C-136.13464844 244.74191406 -136.46851563 243.99554688 -136.8125 243.2265625 C-137.28623047 242.15341797 -137.28623047 242.15341797 -137.76953125 241.05859375 C-138.06279297 240.39875488 -138.35605469 239.73891602 -138.65820312 239.05908203 C-139.30078125 237.36328125 -139.30078125 237.36328125 -139.30078125 235.36328125 C-139.96078125 235.36328125 -140.62078125 235.36328125 -141.30078125 235.36328125 C-141.6875 234.26371094 -142.07421875 233.16414062 -142.47265625 232.03125 C-142.72297607 231.32121826 -142.9732959 230.61118652 -143.23120117 229.87963867 C-143.78304386 228.31156378 -144.33264374 226.74269799 -144.88012695 225.1730957 C-146.31345619 221.08033633 -147.83662259 217.06103419 -149.48828125 213.05078125 C-159.35752229 185.74588105 -158.5854175 145.41376806 -148.11450195 118.49829102 C-146.65315675 114.66406847 -145.39823794 110.75939686 -144.11328125 106.86328125 C-143.84064453 106.04085937 -143.56800781 105.2184375 -143.28710938 104.37109375 C-142.62360833 102.36895024 -141.96199505 100.36618129 -141.30078125 98.36328125 C-140.64078125 98.36328125 -139.98078125 98.36328125 -139.30078125 98.36328125 C-139.130625 97.80640625 -138.96046875 97.24953125 -138.78515625 96.67578125 C-137.06762188 91.26737516 -134.9473587 86.38265229 -132.30078125 81.36328125 C-131.64078125 81.36328125 -130.98078125 81.36328125 -130.30078125 81.36328125 C-130.05328125 80.68265625 -129.80578125 80.00203125 -129.55078125 79.30078125 C-127.46596694 74.40146763 -125.11693846 70.1221961 -121.30078125 66.36328125 C-120.26354783 65.04266575 -119.24424831 63.70786622 -118.23828125 62.36328125 C-112.00490307 54.30581977 -105.49270673 46.90206068 -97.26171875 40.8515625 C-95.08632183 39.27044382 -95.08632183 39.27044382 -92.61328125 36.67578125 C-90.04733872 34.10983872 -87.40846507 32.22789154 -84.30078125 30.36328125 C-83.64078125 30.36328125 -82.98078125 30.36328125 -82.30078125 30.36328125 C-81.97078125 29.37328125 -81.64078125 28.38328125 -81.30078125 27.36328125 C-78.8671875 25.7578125 -78.8671875 25.7578125 -75.86328125 24.17578125 C-74.38021484 23.38107422 -74.38021484 23.38107422 -72.8671875 22.5703125 C-70.30078125 21.36328125 -70.30078125 21.36328125 -68.30078125 21.36328125 C-68.30078125 20.70328125 -68.30078125 20.04328125 -68.30078125 19.36328125 C-65.69947498 18.18984965 -63.09509617 17.02435617 -60.48828125 15.86328125 C-59.75029297 15.52941406 -59.01230469 15.19554688 -58.25195312 14.8515625 C-57.53974609 14.53574219 -56.82753906 14.21992187 -56.09375 13.89453125 C-55.43914795 13.60126953 -54.7845459 13.30800781 -54.11010742 13.00585938 C-52.30078125 12.36328125 -52.30078125 12.36328125 -49.30078125 12.36328125 C-49.30078125 11.70328125 -49.30078125 11.04328125 -49.30078125 10.36328125 C-45.3849291 9.25621261 -41.46795086 8.15317836 -37.55078125 7.05078125 C-36.45894531 6.74205078 -35.36710937 6.43332031 -34.2421875 6.11523438 C-33.15292969 5.80908203 -32.06367188 5.50292969 -30.94140625 5.1875 C-29.95688477 4.90994873 -28.97236328 4.63239746 -27.95800781 4.34643555 C-26.75112305 4.02199463 -25.54423828 3.69755371 -24.30078125 3.36328125 C-23.42476761 3.10949203 -22.54875397 2.85570282 -21.64619446 2.59422302 C-14.31057862 0.5780427 -7.58809544 -0.06633287 0 0 Z M-4.30078125 110.36328125 C-4.30078125 111.02328125 -4.30078125 111.68328125 -4.30078125 112.36328125 C-5.08453125 112.42515625 -5.86828125 112.48703125 -6.67578125 112.55078125 C-19.14709572 115.34607587 -28.4894086 124.2078788 -35.9609375 134.2109375 C-37.83352233 137.21908398 -38.63677469 139.89569145 -39.30078125 143.36328125 C-39.96078125 143.36328125 -40.62078125 143.36328125 -41.30078125 143.36328125 C-46.39967864 158.59168461 -48.461023 176.38379515 -41.35595703 191.35400391 C-36.29378879 201.51539066 -36.29378879 201.51539066 -28.30078125 209.36328125 C-27.53765625 210.33265625 -26.77453125 211.30203125 -25.98828125 212.30078125 C-18.08430947 222.00998115 -3.98411257 225.89391897 7.9140625 227.140625 C17.13067997 227.68277897 25.45507924 226.71344123 34.26171875 224.05078125 C35.26223267 223.74998657 35.26223267 223.74998657 36.28295898 223.44311523 C40.47114614 222.06764322 43.40434272 220.25860289 46.69921875 217.36328125 C47.68921875 216.72390625 48.67921875 216.08453125 49.69921875 215.42578125 C61.23740579 207.49327766 69.60844452 193.30258362 72.34179688 179.6862793 C72.92999912 175.86336648 73.08067675 172.10218313 73.07421875 168.23828125 C73.07550781 167.42512451 73.07679688 166.61196777 73.078125 165.77416992 C72.94236755 157.87324077 71.20196725 150.8380078 68.69921875 143.36328125 C68.03921875 143.36328125 67.37921875 143.36328125 66.69921875 143.36328125 C66.44011719 142.48285156 66.18101562 141.60242188 65.9140625 140.6953125 C61.84823921 129.54371356 52.04340242 120.51963245 41.69921875 115.05078125 C40.37883943 114.45851233 39.04387657 113.89814514 37.69921875 113.36328125 C36.79945313 113.00492187 35.8996875 112.6465625 34.97265625 112.27734375 C21.97469842 107.33741908 9.22176326 107.27241393 -4.30078125 110.36328125 Z M-189.30078125 450.36328125 C-196.4675486 462.3460608 -196.4675486 462.3460608 -201.30078125 477.36328125 C-201.96078125 477.69328125 -202.62078125 478.02328125 -203.30078125 478.36328125 C-204.58885609 480.99480066 -205.78079709 483.60820672 -206.92578125 486.30078125 C-207.250625 487.04263672 -207.57546875 487.78449219 -207.91015625 488.54882812 C-209.67122281 492.31756221 -209.67122281 492.31756221 -210.30078125 496.36328125 C-211.29078125 496.85828125 -211.29078125 496.85828125 -212.30078125 497.36328125 C-215.69597038 503.72926088 -218.66361573 510.32346951 -220.30078125 517.36328125 C-220.96078125 517.36328125 -221.62078125 517.36328125 -222.30078125 517.36328125 C-223.29078125 520.82828125 -223.29078125 520.82828125 -224.30078125 524.36328125 C-217.68992649 523.8735883 -212.35101111 522.02885383 -206.30078125 519.36328125 C-206.30078125 518.70328125 -206.30078125 518.04328125 -206.30078125 517.36328125 C-205.47578125 517.13640625 -204.65078125 516.90953125 -203.80078125 516.67578125 C-198.72961089 514.77409236 -194.1492298 512.2117298 -190.30078125 508.36328125 C-187.85663832 505.91913832 -185.17497553 504.34913395 -182.203125 502.609375 C-180.28241953 501.45343244 -180.28241953 501.45343244 -178.91015625 499.91015625 C-176.72191371 497.806894 -174.29014779 496.59294589 -171.61328125 495.17578125 C-170.61941406 494.64597656 -169.62554687 494.11617187 -168.6015625 493.5703125 C-167.84230469 493.17199219 -167.08304688 492.77367187 -166.30078125 492.36328125 C-166.30078125 491.70328125 -166.30078125 491.04328125 -166.30078125 490.36328125 C-165.45257813 490.08742188 -164.604375 489.8115625 -163.73046875 489.52734375 C-160.25791271 488.34873134 -156.8446813 487.06397719 -153.42578125 485.73828125 C-152.27335937 485.29226563 -151.1209375 484.84625 -149.93359375 484.38671875 C-149.06476563 484.04898438 -148.1959375 483.71125 -147.30078125 483.36328125 C-147.30078125 482.70328125 -147.30078125 482.04328125 -147.30078125 481.36328125 C-146.69234375 481.25371094 -146.08390625 481.14414062 -145.45703125 481.03125 C-144.58046875 480.87269531 -143.70390625 480.71414063 -142.80078125 480.55078125 C-141.27130859 480.27814453 -141.27130859 480.27814453 -139.7109375 480 C-137.44170083 479.57630518 -135.17820361 479.12059684 -132.921875 478.6328125 C-120.16009417 475.96677769 -107.29290072 475.20499631 -94.30078125 474.36328125 C-94.30078125 466.44328125 -94.30078125 458.52328125 -94.30078125 450.36328125 C-125.65078125 450.36328125 -157.00078125 450.36328125 -189.30078125 450.36328125 Z M-81.30078125 450.36328125 C-81.30078125 458.28328125 -81.30078125 466.20328125 -81.30078125 474.36328125 C-76.9611381 475.60317929 -72.74354675 476.73875758 -68.36328125 477.73828125 C-63.19589173 479.03172943 -58.8982241 480.71220106 -54.30078125 483.36328125 C-53.305625 483.915 -52.31046875 484.46671875 -51.28515625 485.03515625 C-46.39976585 487.79646387 -42.1635394 490.25396406 -38.30078125 494.36328125 C-34.79454235 497.95942449 -34.79454235 497.95942449 -30.30078125 499.36328125 C-30.07003906 499.92402344 -29.83929688 500.48476563 -29.6015625 501.0625 C-27.96152069 503.96335474 -25.90013081 505.87964262 -23.48828125 508.17578125 C-20.55316799 511.04342064 -17.80756089 513.78606485 -15.48828125 517.17578125 C-13.42295802 520.39352774 -13.42295802 520.39352774 -10.80078125 522.86328125 C-8.78278191 524.88128059 -7.32943637 526.66237254 -5.73828125 528.98828125 C-3.85384771 531.72927549 -1.98880835 533.39206137 0.69921875 535.36328125 C1.17359375 536.18828125 1.64796875 537.01328125 2.13671875 537.86328125 C3.94689205 540.75955853 5.69595248 541.82106344 8.69921875 543.36328125 C7.39766869 539.28363844 7.39766869 539.28363844 5.69921875 535.36328125 C5.03921875 535.36328125 4.37921875 535.36328125 3.69921875 535.36328125 C4.19421875 533.87828125 4.19421875 533.87828125 4.69921875 532.36328125 C4.03921875 532.36328125 3.37921875 532.36328125 2.69921875 532.36328125 C2.5290625 531.81800781 2.35890625 531.27273438 2.18359375 530.7109375 C0.37381061 525.07943147 -1.80423503 519.72388556 -4.30078125 514.36328125 C-4.96078125 514.36328125 -5.62078125 514.36328125 -6.30078125 514.36328125 C-6.4709375 513.74582031 -6.64109375 513.12835937 -6.81640625 512.4921875 C-8.52263549 506.52946085 -10.63659242 500.96213494 -13.30078125 495.36328125 C-13.96078125 495.36328125 -14.62078125 495.36328125 -15.30078125 495.36328125 C-15.4709375 494.81800781 -15.64109375 494.27273438 -15.81640625 493.7109375 C-17.62618939 488.07943147 -19.80423503 482.72388556 -22.30078125 477.36328125 C-22.96078125 477.36328125 -23.62078125 477.36328125 -24.30078125 477.36328125 C-24.41421875 476.66589844 -24.52765625 475.96851563 -24.64453125 475.25 C-25.37624576 472.03132723 -26.50427593 469.20975446 -27.80078125 466.17578125 C-28.24421875 465.13035156 -28.68765625 464.08492187 -29.14453125 463.0078125 C-29.82831903 461.44387896 -30.53743941 459.88996494 -31.30078125 458.36328125 C-31.96078125 458.36328125 -32.62078125 458.36328125 -33.30078125 458.36328125 C-33.61015625 457.22890625 -33.91953125 456.09453125 -34.23828125 454.92578125 C-34.93002656 451.57553026 -34.93002656 451.57553026 -36.30078125 450.36328125 C-37.71303171 450.27040865 -39.12987059 450.24581353 -40.54516602 450.24975586 C-41.89645348 450.24986916 -41.89645348 450.24986916 -43.27503967 450.24998474 C-44.74377785 450.25772667 -44.74377785 450.25772667 -46.2421875 450.265625 C-47.23959457 450.26703995 -48.23700165 450.2684549 -49.26463318 450.26991272 C-52.46421249 450.27553011 -55.66372294 450.28808554 -58.86328125 450.30078125 C-61.0266917 450.30579401 -63.19010324 450.3103573 -65.35351562 450.31445312 C-70.66931899 450.3246562 -75.98497264 450.34422817 -81.30078125 450.36328125 Z M63.69921875 450.36328125 C60.55014755 455.54338966 60.55014755 455.54338966 60.69921875 458.36328125 C60.03921875 458.69328125 59.37921875 459.02328125 58.69921875 459.36328125 C57.61015355 461.2207585 56.60060776 463.1253715 55.63671875 465.05078125 C55.10949219 466.08589844 54.58226562 467.12101562 54.0390625 468.1875 C52.72767119 471.29584151 52.24620371 474.05716862 51.69921875 477.36328125 C50.70921875 477.85828125 50.70921875 477.85828125 49.69921875 478.36328125 C48.61220701 480.24320606 47.60217663 482.1681327 46.63671875 484.11328125 C46.10949219 485.16 45.58226562 486.20671875 45.0390625 487.28515625 C43.61588 490.25490702 43.61588 490.25490702 43.140625 493.19140625 C42.92212891 494.26648438 42.92212891 494.26648438 42.69921875 495.36328125 C41.70921875 495.85828125 41.70921875 495.85828125 40.69921875 496.36328125 C39.60880756 498.41105612 38.59976938 500.50261501 37.63671875 502.61328125 C37.10949219 503.7528125 36.58226562 504.89234375 36.0390625 506.06640625 C34.63012354 509.23100539 34.63012354 509.23100539 34.140625 512.22265625 C33.99496094 512.9290625 33.84929687 513.63546875 33.69921875 514.36328125 C32.70921875 514.85828125 32.70921875 514.85828125 31.69921875 515.36328125 C30.41345278 517.8271812 29.22208206 520.27408213 28.07421875 522.80078125 C27.749375 523.49494141 27.42453125 524.18910156 27.08984375 524.90429688 C25.31513834 528.48423269 25.31513834 528.48423269 24.69921875 532.36328125 C23.70921875 532.85828125 23.70921875 532.85828125 22.69921875 533.36328125 C19.11864863 539.31908105 16.67185398 545.72367975 14.69921875 552.36328125 C17.28610356 555.02625091 19.84219413 557.4824274 22.69921875 559.86328125 C25.54033835 562.23088092 28.08648849 564.75055099 30.69921875 567.36328125 C33.79074764 570.37876223 33.79074764 570.37876223 37.69921875 571.36328125 C37.93769531 571.97042969 38.17617188 572.57757812 38.421875 573.203125 C39.99253358 575.85931519 41.39645442 576.5623985 44.13671875 577.92578125 C48.42276693 580.07939689 48.42276693 580.07939689 50.09765625 581.79931641 C53.00719982 584.64055667 56.68932011 586.28927355 60.26171875 588.17578125 C61.51915894 588.84009155 61.51915894 588.84009155 62.80200195 589.51782227 C70.51996224 593.47613963 78.40488948 596.23832248 86.6940918 598.72241211 C88.71348632 599.36784138 90.66568084 600.11486322 92.63671875 600.89453125 C97.00829292 602.56159811 101.42639598 603.53529036 106.01171875 604.42578125 C107.29429565 604.68065308 107.29429565 604.68065308 108.6027832 604.94067383 C115.65670601 606.28584651 122.71894203 607.14287272 129.87036133 607.76782227 C135.60999941 608.27406191 135.60999941 608.27406191 136.69921875 609.36328125 C138.10583378 609.52067391 139.51971482 609.61423014 140.93359375 609.6796875 C141.81047852 609.72174316 142.68736328 609.76379883 143.59082031 609.80712891 C145.00572754 609.86586182 145.00572754 609.86586182 146.44921875 609.92578125 C147.41569336 609.96751465 148.38216797 610.00924805 149.37792969 610.05224609 C160.93479194 610.52652269 172.39223951 610.34465301 183.94921875 609.92578125 C185.08262695 609.88662598 186.21603516 609.8474707 187.38378906 609.80712891 C188.44178711 609.76507324 189.49978516 609.72301758 190.58984375 609.6796875 C191.54922852 609.64302979 192.50861328 609.60637207 193.49707031 609.56860352 C195.67325185 609.60205122 195.67325185 609.60205122 196.69921875 608.36328125 C198.44862117 608.12352311 200.20608912 607.94223891 201.96484375 607.78515625 C216.58723309 606.37954547 230.5186486 604.20860199 244.69921875 600.36328125 C244.69921875 599.70328125 244.69921875 599.04328125 244.69921875 598.36328125 C245.56417969 598.255 246.42914062 598.14671875 247.3203125 598.03515625 C255.01139266 596.50583164 262.70232536 592.45324507 267.69921875 586.36328125 C268.40046875 585.57953125 269.10171875 584.79578125 269.82421875 583.98828125 C272.45357959 580.30717608 274.96761509 576.6061135 274.41015625 571.94775391 C273.67738264 569.28390039 272.72255695 566.99364317 271.51171875 564.51171875 C271.0645752 563.58721924 270.61743164 562.66271973 270.15673828 561.71020508 C269.67575684 560.72947021 269.19477539 559.74873535 268.69921875 558.73828125 C267.69636032 556.66678974 266.69376004 554.59517324 265.69140625 552.5234375 C265.18834961 551.48848145 264.68529297 550.45352539 264.16699219 549.38720703 C262.03378931 544.99235493 259.92389276 540.58673137 257.82421875 536.17578125 C257.48003906 535.46019043 257.13585937 534.74459961 256.78125 534.00732422 C253.86542198 527.88436682 251.27036438 521.6376441 248.69921875 515.36328125 C247.42618896 515.34346191 246.15315918 515.32364258 244.84155273 515.30322266 C189.93396838 514.41878461 189.93396838 514.41878461 169.22265625 510.73046875 C166.67771344 510.36015199 164.26704759 510.29839027 161.69921875 510.36328125 C161.69921875 509.70328125 161.69921875 509.04328125 161.69921875 508.36328125 C160.5184375 508.02554688 159.33765625 507.6878125 158.12109375 507.33984375 C156.56374346 506.88952559 155.00645502 506.43899354 153.44921875 505.98828125 C152.67191406 505.7665625 151.89460937 505.54484375 151.09375 505.31640625 C150.33964844 505.09726562 149.58554687 504.878125 148.80859375 504.65234375 C148.11733398 504.45334473 147.42607422 504.2543457 146.71386719 504.04931641 C144.69921875 503.36328125 144.69921875 503.36328125 142.62988281 502.28271484 C140.60419744 501.14830116 140.60419744 501.14830116 137.69921875 501.36328125 C137.69921875 500.70328125 137.69921875 500.04328125 137.69921875 499.36328125 C136.09380052 498.27999904 134.43685878 497.27277608 132.76171875 496.30078125 C124.51740439 491.19058124 117.98810549 485.12752806 113.69921875 476.36328125 C113.03921875 476.36328125 112.37921875 476.36328125 111.69921875 476.36328125 C111.59609375 475.57953125 111.49296875 474.79578125 111.38671875 473.98828125 C110.68877995 470.30824028 109.67103053 466.8733615 108.515625 463.31640625 C107.33824673 459.05756427 106.56577592 454.69606711 105.69921875 450.36328125 C91.83921875 450.36328125 77.97921875 450.36328125 63.69921875 450.36328125 Z M118.69921875 450.36328125 C119.01004747 452.11357887 119.32295054 453.86350819 119.63671875 455.61328125 C119.81074219 456.5878125 119.98476563 457.56234375 120.1640625 458.56640625 C120.60301604 460.8604992 121.10270467 463.10620096 121.69921875 465.36328125 C122.35921875 465.36328125 123.01921875 465.36328125 123.69921875 465.36328125 C123.94671875 466.22953125 124.19421875 467.09578125 124.44921875 467.98828125 C126.65486549 473.94352744 129.68737897 477.57384142 134.69921875 481.36328125 C135.46234375 482.18828125 136.22546875 483.01328125 137.01171875 483.86328125 C140.91141657 487.49090713 145.26709044 490.36328125 150.69921875 490.36328125 C150.69921875 491.02328125 150.69921875 491.68328125 150.69921875 492.36328125 C163.18338337 496.64046461 176.4084432 500.08823264 189.69921875 499.36328125 C189.69921875 500.02328125 189.69921875 500.68328125 189.69921875 501.36328125 C201.19740228 502.32173335 212.60458681 502.48552155 224.13671875 502.42578125 C225.85091013 502.42074954 227.56510296 502.41618962 229.27929688 502.41210938 C233.41930768 502.40125152 237.55924646 502.38408191 241.69921875 502.36328125 C241.20421875 500.38328125 241.20421875 500.38328125 240.69921875 498.36328125 C240.03921875 498.36328125 239.37921875 498.36328125 238.69921875 498.36328125 C238.5290625 497.81800781 238.35890625 497.27273438 238.18359375 496.7109375 C236.37381061 491.07943147 234.19576497 485.72388556 231.69921875 480.36328125 C231.03921875 480.36328125 230.37921875 480.36328125 229.69921875 480.36328125 C229.59609375 479.68652344 229.49296875 479.00976562 229.38671875 478.3125 C228.55469725 474.74331686 227.17756428 471.51251869 225.69921875 468.17578125 C225.28929687 467.2331543 225.28929687 467.2331543 224.87109375 466.27148438 C223.85621419 463.94571871 222.83422026 461.63328428 221.69921875 459.36328125 C221.03921875 459.36328125 220.37921875 459.36328125 219.69921875 459.36328125 C219.57546875 458.43515625 219.45171875 457.50703125 219.32421875 456.55078125 C218.88388793 453.2240289 218.88388793 453.2240289 216.69921875 450.36328125 C213.55918162 450.07728779 210.61733182 449.98543964 207.47607422 450.02270508 C206.51993225 450.022267 205.56379028 450.02182892 204.57867432 450.02137756 C201.40771296 450.02347319 198.23727562 450.0468408 195.06640625 450.0703125 C192.87208342 450.0759057 190.67775686 450.0801771 188.48342896 450.08317566 C182.69978546 450.09464614 176.91636693 450.12413232 171.1328125 450.1572876 C165.23440596 450.18794102 159.33596318 450.20167088 153.4375 450.21679688 C141.85797391 450.24899986 130.27861502 450.30022282 118.69921875 450.36328125 Z M-121.30078125 488.67578125 C-122.05488281 488.79373047 -122.80898438 488.91167969 -123.5859375 489.03320312 C-129.03710694 489.9448481 -134.10085809 491.51689716 -139.30078125 493.36328125 C-140.50863281 493.76289062 -141.71648437 494.1625 -142.9609375 494.57421875 C-148.85458149 496.59064345 -154.27467326 498.57518353 -159.42578125 502.10546875 C-162.26769731 504.01192078 -165.29577567 505.55710132 -168.3203125 507.15234375 C-170.32049872 508.37533729 -171.68492759 509.67830016 -173.30078125 511.36328125 C-180.09798551 516.82616135 -187.384747 522.65944871 -195.30078125 526.36328125 C-195.30078125 527.02328125 -195.30078125 527.68328125 -195.30078125 528.36328125 C-196.14898437 528.63914062 -196.9971875 528.915 -197.87109375 529.19921875 C-201.34364979 530.37783116 -204.7568812 531.66258531 -208.17578125 532.98828125 C-209.32820313 533.43429687 -210.480625 533.8803125 -211.66796875 534.33984375 C-212.53679687 534.67757812 -213.405625 535.0153125 -214.30078125 535.36328125 C-214.30078125 536.02328125 -214.30078125 536.68328125 -214.30078125 537.36328125 C-215.18121094 537.42386719 -216.06164062 537.48445312 -216.96875 537.546875 C-218.13019531 537.63066406 -219.29164063 537.71445312 -220.48828125 537.80078125 C-221.63683594 537.88199219 -222.78539062 537.96320312 -223.96875 538.046875 C-225.06832031 538.15128906 -226.16789062 538.25570312 -227.30078125 538.36328125 C-228.19152344 538.38003906 -229.08226562 538.39679687 -230 538.4140625 C-232.70235685 539.25047443 -232.70235685 539.25047443 -234.21484375 542.78515625 C-234.80471519 544.21997867 -235.37435992 545.66324739 -235.92578125 547.11328125 C-236.49816863 548.54682802 -237.07362886 549.97915215 -237.65234375 551.41015625 C-237.92812256 552.09609863 -238.20390137 552.78204102 -238.48803711 553.48876953 C-239.54376747 555.92370425 -240.89771807 558.11386629 -242.30078125 560.36328125 C-243.22592538 562.22399367 -244.12192944 564.09947821 -244.98828125 565.98828125 C-245.64376953 567.39980469 -245.64376953 567.39980469 -246.3125 568.83984375 C-247.48311679 571.37717244 -247.48311679 571.37717244 -247.30078125 574.36328125 C-247.96078125 574.36328125 -248.62078125 574.36328125 -249.30078125 574.36328125 C-250.47421285 576.96458752 -251.63970633 579.56896633 -252.80078125 582.17578125 C-253.13464844 582.91376953 -253.46851563 583.65175781 -253.8125 584.41210938 C-254.28623047 585.48041992 -254.28623047 585.48041992 -254.76953125 586.5703125 C-255.06279297 587.22491455 -255.35605469 587.8795166 -255.65820312 588.55395508 C-256.46811549 590.51444193 -256.46811549 590.51444193 -256.30078125 593.36328125 C-256.96078125 593.36328125 -257.62078125 593.36328125 -258.30078125 593.36328125 C-259.47421285 595.96458752 -260.63970633 598.56896633 -261.80078125 601.17578125 C-262.13464844 601.91376953 -262.46851563 602.65175781 -262.8125 603.41210938 C-263.28623047 604.48041992 -263.28623047 604.48041992 -263.76953125 605.5703125 C-264.06279297 606.22491455 -264.35605469 606.8795166 -264.65820312 607.55395508 C-265.46811549 609.51444193 -265.46811549 609.51444193 -265.30078125 612.36328125 C-265.96078125 612.36328125 -266.62078125 612.36328125 -267.30078125 612.36328125 C-268.47191071 614.98637224 -269.63784089 617.61156267 -270.80078125 620.23828125 C-271.13464844 620.98464844 -271.46851563 621.73101563 -271.8125 622.5 C-272.12832031 623.21542969 -272.44414062 623.93085937 -272.76953125 624.66796875 C-273.06279297 625.32780762 -273.35605469 625.98764648 -273.65820312 626.66748047 C-274.4188938 628.37274332 -274.4188938 628.37274332 -274.30078125 630.36328125 C-274.96078125 630.36328125 -275.62078125 630.36328125 -276.30078125 630.36328125 C-277.4717213 633.15322515 -278.63769052 635.94506722 -279.80078125 638.73828125 C-280.30158203 639.929375 -280.30158203 639.929375 -280.8125 641.14453125 C-281.12832031 641.90507813 -281.44414062 642.665625 -281.76953125 643.44921875 C-282.06279297 644.15095215 -282.35605469 644.85268555 -282.65820312 645.57568359 C-283.41353906 647.36036686 -283.41353906 647.36036686 -283.30078125 649.36328125 C-283.96078125 649.69328125 -284.62078125 650.02328125 -285.30078125 650.36328125 C-222.27078125 650.36328125 -159.24078125 650.36328125 -94.30078125 650.36328125 C-94.30078125 596.57328125 -94.30078125 542.78328125 -94.30078125 487.36328125 C-107.99075721 487.20190144 -107.99075721 487.20190144 -121.30078125 488.67578125 Z M-81.30078125 488.36328125 C-81.32410833 509.33780111 -81.34175949 530.31231884 -81.35259342 551.28684902 C-81.35775679 561.02497732 -81.36480025 570.76309757 -81.3762207 580.5012207 C-81.38616631 588.98577618 -81.39263438 597.47032583 -81.39486974 605.95488697 C-81.39617706 610.45026785 -81.39926423 614.94563206 -81.40651131 619.44100761 C-81.41326958 623.66719171 -81.41539861 627.89335218 -81.41388893 632.11954117 C-81.41416535 633.67524023 -81.41617161 635.23094004 -81.41998672 636.78663445 C-81.42492098 638.90140059 -81.42378055 641.01607612 -81.42103577 643.13084412 C-81.42195756 644.31719169 -81.42287935 645.50353926 -81.42382908 646.72583675 C-81.60096061 649.28756351 -81.60096061 649.28756351 -80.30078125 650.36328125 C-78.21578555 650.46121657 -76.12740119 650.48699319 -74.04010677 650.48632908 C-73.04307972 650.48805985 -73.04307972 650.48805985 -72.02591071 650.48982558 C-69.77082506 650.49249869 -67.51580904 650.48796443 -65.26072693 650.48353577 C-63.63881716 650.48397133 -62.01690746 650.48484595 -60.39499813 650.48612493 C-55.91643008 650.48837288 -51.4378857 650.48434454 -46.95932066 650.47934687 C-42.13788897 650.47504683 -37.31645871 650.47648848 -32.49502563 650.47724915 C-24.13436502 650.47777467 -15.77371217 650.47462495 -7.41305351 650.46901131 C4.67520325 650.46090008 16.76345624 650.45828148 28.85171544 650.45702332 C48.46193678 650.4548322 68.07215396 650.44817051 87.68237305 650.4387207 C106.73706033 650.42954812 125.7917465 650.42246654 144.84643555 650.41821289 C146.02006209 650.41795017 147.19368862 650.41768744 148.4028796 650.41741676 C154.29034896 650.41611176 160.17781833 650.41484805 166.06528771 650.41360486 C214.94326759 650.40323039 263.82124297 650.38561046 312.69921875 650.36328125 C312.03921875 650.03328125 311.37921875 649.70328125 310.69921875 649.36328125 C309.98828125 647.61328125 309.98828125 647.61328125 309.32421875 645.36328125 C307.8068738 640.51555868 305.84167899 635.96358927 303.69921875 631.36328125 C303.03921875 631.36328125 302.37921875 631.36328125 301.69921875 631.36328125 C301.59738281 630.51507812 301.49554687 629.666875 301.390625 628.79296875 C300.62603368 625.00025024 299.30767545 621.97240372 297.63671875 618.48828125 C297.08886719 617.33585938 296.54101562 616.1834375 295.9765625 614.99609375 C295.55503906 614.12726563 295.13351562 613.2584375 294.69921875 612.36328125 C294.03921875 612.36328125 293.37921875 612.36328125 292.69921875 612.36328125 C292.44398438 611.43708984 292.44398438 611.43708984 292.18359375 610.4921875 C290.47736451 604.52946085 288.36340758 598.96213494 285.69921875 593.36328125 C285.03921875 593.36328125 284.37921875 593.36328125 283.69921875 593.36328125 C283.03921875 592.04328125 282.37921875 590.72328125 281.69921875 589.36328125 C281.34730469 589.79898438 280.99539063 590.2346875 280.6328125 590.68359375 C274.22414122 598.41415806 267.86587494 603.19494262 258.69921875 607.36328125 C258.69921875 608.02328125 258.69921875 608.68328125 258.69921875 609.36328125 C256.77142578 609.7809375 256.77142578 609.7809375 254.8046875 610.20703125 C249.84164395 611.31057744 244.92630307 612.56270962 240.01171875 613.86328125 C239.19638672 614.07597656 238.38105469 614.28867187 237.54101562 614.5078125 C234.25749963 615.37315301 231.05366387 616.23060911 227.87109375 617.421875 C222.88361773 618.90214806 217.79737895 619.35683346 212.63671875 619.92578125 C211.47785156 620.05509033 210.31898438 620.18439941 209.125 620.31762695 C198.65311601 621.44177219 188.22747176 622.1389975 177.69921875 622.36328125 C176.71550293 622.38519531 175.73178711 622.40710938 174.71826172 622.4296875 C122.04090101 623.42001858 122.04090101 623.42001858 98.69921875 615.36328125 C94.98135201 614.28030785 91.24696962 613.25942897 87.51171875 612.23828125 C86.51462891 611.96113281 85.51753906 611.68398438 84.49023438 611.3984375 C83.53439453 611.13675781 82.57855469 610.87507812 81.59375 610.60546875 C80.72596924 610.36683105 79.85818848 610.12819336 78.96411133 609.88232422 C76.59912047 609.25159213 76.59912047 609.25159213 73.69921875 609.36328125 C73.69921875 608.70328125 73.69921875 608.04328125 73.69921875 607.36328125 C70.74302656 606.19113635 67.78393086 605.02650649 64.82421875 603.86328125 C63.98246094 603.52941406 63.14070312 603.19554687 62.2734375 602.8515625 C61.46777344 602.53574219 60.66210938 602.21992187 59.83203125 601.89453125 C58.71658936 601.45463867 58.71658936 601.45463867 57.57861328 601.00585938 C55.71484662 600.25544134 55.71484662 600.25544134 53.69921875 600.36328125 C53.69921875 599.70328125 53.69921875 599.04328125 53.69921875 598.36328125 C51.57688896 597.19151607 49.45164084 596.0257334 47.32421875 594.86328125 C46.41929687 594.36248047 46.41929687 594.36248047 45.49609375 593.8515625 C42.28507098 591.97554187 42.28507098 591.97554187 38.69921875 591.36328125 C38.36921875 590.37328125 38.03921875 589.38328125 37.69921875 588.36328125 C35.54708524 586.85601722 35.54708524 586.85601722 32.94921875 585.48828125 C28.90957152 583.16677701 25.87308312 580.80919114 22.69921875 577.36328125 C21.87421875 576.70328125 21.04921875 576.04328125 20.19921875 575.36328125 C14.82453568 571.06353479 10.41543031 565.84411508 5.84375 560.7265625 C4.23841484 558.95747731 2.57591432 557.23997682 0.88671875 555.55078125 C-1.38068749 553.28337501 -3.29898993 550.8655204 -5.30078125 548.36328125 C-6.53828125 547.12578125 -6.53828125 547.12578125 -7.80078125 545.86328125 C-10.30078125 543.36328125 -10.30078125 543.36328125 -12.48828125 540.55078125 C-13.08640625 539.82890625 -13.68453125 539.10703125 -14.30078125 538.36328125 C-14.96078125 538.36328125 -15.62078125 538.36328125 -16.30078125 538.36328125 C-16.54828125 537.64140625 -16.79578125 536.91953125 -17.05078125 536.17578125 C-18.42347717 533.08721543 -20.02431421 530.85316707 -22.30078125 528.36328125 C-22.96078125 528.36328125 -23.62078125 528.36328125 -24.30078125 528.36328125 C-24.63142578 527.55697266 -24.63142578 527.55697266 -24.96875 526.734375 C-26.75129428 523.56134163 -29.13669635 521.06023611 -31.61328125 518.42578125 C-32.32387695 517.65717773 -32.32387695 517.65717773 -33.04882812 516.87304688 C-37.18646464 512.41843683 -41.39725401 508.04342741 -45.98828125 504.05078125 C-46.56964844 503.53902344 -47.15101563 503.02726562 -47.75 502.5 C-49.24916397 501.16621875 -49.24916397 501.16621875 -51.30078125 501.36328125 C-51.30078125 500.70328125 -51.30078125 500.04328125 -51.30078125 499.36328125 C-53.98393785 497.89644874 -56.67182892 496.43975099 -59.36328125 494.98828125 C-60.11544922 494.57578125 -60.86761719 494.16328125 -61.64257812 493.73828125 C-68.18475949 490.22646095 -73.78683687 488.24373078 -81.30078125 488.36328125 Z M8.69921875 544.36328125 C9.69921875 546.36328125 9.69921875 546.36328125 9.69921875 546.36328125 Z " fill="#00BFD8" transform="translate(386.30078125,53.63671875)"/>
<path d="M0 0 C4 1 4 1 4 1 Z " fill="#00BFD8" transform="translate(127,745)"/>
<path d="M0 0 C0.99 0.495 0.99 0.495 2 1 C1.01 1.495 1.01 1.495 0 2 C0 1.34 0 0.68 0 0 Z " fill="#00BFD8" transform="translate(383,582)"/>
<path d="M0 0 C0.66 0.66 1.32 1.32 2 2 C1.34 2 0.68 2 0 2 C0 1.34 0 0.68 0 0 Z " fill="#00BFD8" transform="translate(348,569)"/>
<path d="M0 0 C2 1 2 1 2 1 Z " fill="#00BFD8" transform="translate(664,650)"/>
<path d="" fill="#00BFD8" transform="translate(0,0)"/>
</svg>
