<?xml version="1.0" encoding="UTF-8"?><svg id="Layer_1" xmlns="http://www.w3.org/2000/svg" xmlns:xlink="http://www.w3.org/1999/xlink" viewBox="0 0 2430 1920"><defs><style>.cls-1{fill:#ed1c24;}.cls-1,.cls-2,.cls-3,.cls-4,.cls-5{stroke-width:0px;}.cls-2{fill:url(#linear-gradient);}.cls-3{fill:#fbb03b;}.cls-4{fill:#2e3192;}.cls-5{fill:#006837;}</style><linearGradient id="linear-gradient" x1="1215" y1="1809.59" x2="1215" y2="1893.66" gradientUnits="userSpaceOnUse"><stop offset="0" stop-color="#54b7e1"/><stop offset="1" stop-color="#4db750"/></linearGradient></defs><path class="cls-1" d="M1503.1,895.7l-7.01-64.17c-1.4-12.85-10.96-23.68-24.42-29.42l-.27-62.86h-.03c21.73-22.78,35.01-53.67,34.86-87.62l-.83-191.59c-.19-44.78-23.68-84-58.94-106.24l-.14-33.11,16.75-.07c8.65-.04,15.62-7.07,15.58-15.72l-.28-65.02c-.03-8.65-7.07-15.62-15.71-15.58l-571.13,2.48c-8.65.03-15.62,7.07-15.58,15.71l.28,65.03c.03,8.64,7.07,15.62,15.71,15.58l21.88-.09.13,30.01c-37.9,21.91-63.32,62.95-63.12,109.87l.83,191.59c.17,39.33,18.32,74.39,46.63,97.4l.21,49.32c-19.04,3.87-33.56,16.96-35.17,33.11l-6.41,64.23c-2.15,21.64,19.51,40.08,46.94,39.96l552.65-2.39c27.44-.12,48.95-18.76,46.59-40.4ZM1323.67,321.21l.06,13.42-287.19,1.25-.06-13.42,287.2-1.25ZM1021.15,799.53l-.09-19.63,97.11-.42.08,19.62-97.1.43ZM1240.91,798.57l-.09-19.62,108.11-.47.08,19.62-108.1.47Z"/><path class="cls-3" d="M926.74,1295.7l-7.66-70.19c-1.53-14.05-11.99-25.9-26.71-32.19l-.3-68.77h-.03c23.77-24.92,38.3-58.71,38.13-95.85l-.91-209.58c-.21-48.99-25.9-91.89-64.48-116.22l-.16-36.22,18.33-.08c9.46-.04,17.09-7.74,17.05-17.2l-.31-71.13c-.03-9.46-7.74-17.09-17.19-17.04l-624.76,2.71c-9.46.03-17.09,7.74-17.04,17.19l.31,71.14c.04,9.45,7.74,17.09,17.19,17.04l23.93-.1.14,32.83c-41.46,23.97-69.27,68.87-69.05,120.19l.91,209.58c.19,43.03,20.04,81.38,51.01,106.54l.23,53.95c-20.83,4.23-36.72,18.55-38.48,36.22l-7.01,70.27c-2.35,23.67,21.34,43.85,51.35,43.72l604.55-2.62c30.02-.13,53.55-20.53,50.97-44.19ZM730.46,667.26l.06,14.68-314.17,1.37-.07-14.68,314.18-1.37ZM399.53,1190.5l-.1-21.47,106.23-.46.09,21.46-106.22.47ZM639.93,1189.46l-.1-21.46,118.26-.52.09,21.46-118.25.52Z"/><path class="cls-4" d="M2127.45,1295.7l-7.66-70.19c-1.53-14.05-11.99-25.9-26.71-32.19l-.3-68.77h-.03c23.77-24.92,38.3-58.71,38.13-95.85l-.91-209.58c-.21-48.99-25.9-91.89-64.48-116.22l-.16-36.22,18.33-.08c9.46-.04,17.09-7.74,17.05-17.2l-.31-71.13c-.03-9.46-7.74-17.09-17.19-17.04l-624.76,2.71c-9.46.03-17.09,7.74-17.04,17.19l.31,71.14c.04,9.45,7.74,17.09,17.19,17.04l23.93-.1.14,32.83c-41.46,23.97-69.27,68.87-69.05,120.19l.91,209.58c.19,43.03,20.04,81.38,51.01,106.54l.23,53.95c-20.83,4.23-36.72,18.55-38.48,36.22l-7.01,70.27c-2.35,23.67,21.34,43.85,51.35,43.72l604.55-2.62c30.02-.13,53.55-20.53,50.97-44.19ZM1931.17,667.26l.06,14.68-314.17,1.37-.07-14.68,314.18-1.37ZM1600.24,1190.5l-.1-21.47,106.23-.46.09,21.46-106.22.47ZM1840.64,1189.46l-.1-21.46,118.26-.52.09,21.46-118.25.52Z"/><path class="cls-5" d="M1672.51,1709.88l-10.66-97.66c-2.13-19.55-16.68-36.04-37.17-44.78l-.41-95.68h-.04c33.07-34.67,53.28-81.68,53.06-133.35l-1.27-291.59c-.29-68.15-36.04-127.85-89.7-161.69l-.22-50.4,25.5-.11c13.17-.06,23.78-10.76,23.72-23.93l-.43-98.97c-.05-13.16-10.76-23.78-23.91-23.71l-869.23,3.78c-13.16.05-23.78,10.76-23.71,23.91l.43,98.98c.05,13.15,10.76,23.78,23.91,23.71l33.3-.14.2,45.68c-57.68,33.35-96.38,95.81-96.07,167.21l1.27,291.59c.26,59.87,27.88,113.22,70.97,148.23l.31,75.07c-28.98,5.88-51.08,25.81-53.53,50.4l-9.75,97.76c-3.27,32.93,29.69,61.01,71.45,60.82l841.1-3.64c41.77-.18,74.5-28.56,70.91-61.48ZM1399.43,835.55l.08,20.43-437.1,1.91-.1-20.43,437.11-1.91ZM939,1563.53l-.13-29.87,147.8-.64.12,29.85-147.79.65ZM1273.47,1562.07l-.13-29.86,164.53-.72.12,29.85-164.52.72Z"/><rect class="cls-2" x="45.92" y="1809.59" width="2338.16" height="84.07"/></svg>