<svg height="800" width="800" xmlns="http://www.w3.org/2000/svg"><path d="m0 0c9.18753566 8.08846597 17.39420272 16.79203985 24.94799805 26.43237305.77859375.96164062 1.5571875 1.92328125 2.359375 2.9140625 17.55288595 22.08085971 30.26460726 47.18481662 38.640625 74.0859375.27956543.87285644.55913086 1.74571289.84716797 2.64501953.2760205.88155762.55204101 1.76311523.83642578 2.67138672.25193115.79994384.5038623 1.59988769.76342773 2.42407226.55297852 2.25952149.55297852 2.25952149.55297852 6.25952149.88558593-.44730469 1.77117187-.89460938 2.68359375-1.35546875 6.85015954-3.37591595 13.66990723-6.29760855 21.00390625-8.45703125.65089599-.19424561 1.30179199-.38849121 1.97241211-.58862305 11.02811998-3.10127568 21.91297569-3.98946357 33.34008789-3.97387695.67709015.00054382 1.35418029.00108764 2.05178833.00164795 34.16833846.12560596 63.91971278 13.35768469 88.19821167 37.18585205 13.24441826 13.36910094 23.08668988 29.47212618 29.125 47.3125.33970825 1.00003051.33970825 1.00003051.68627929 2.02026367 4.00502553 12.63818088 5.49519272 24.94226171 5.37622071 38.10473633-.00456208 1.07784256-.00456208 1.07784256-.00921631 2.17745971-.07211598 11.55923033-.92861922 22.49965553-4.42828369 33.57254029-.20898926.67691894-.41797852 1.35383789-.63330078 2.05126953-10.48178271 32.90573133-33.30433767 58.77745418-63.71582032 74.77319336-7.92934395 3.98765558-16.1109576 6.80881527-24.6508789 9.17553711-1.18851563.3403125-2.37703125.680625-3.6015625 1.03125-32.94245497 7.75116587-67.87902532.31817773-96.3984375-17.03125-11.02343107-7.0654359-19.9684932-16.6279123-29-26-.73863282.87140625-1.47726563 1.7428125-2.23828125 2.640625-31.40625943 36.93656018-67.68109291 65.02408538-114.76171875 79.359375-.74813965.23267578-1.4962793.46535156-2.26708985.70507812-42.00672342 12.82954964-89.85874656 12.31803026-131.73291015-.70507812-.77263184-.23525391-1.54526367-.47050782-2.3413086-.71289063-42.1877558-13.07104798-81.37278023-39.46418078-108.6586914-74.28710937-.77859375-.96164063-1.5571875-1.92328125-2.359375-2.9140625-17.50136211-22.01604469-30.4656007-47.18674794-38.640625-74.0859375-.23267578-.75345703-.46535157-1.50691407-.70507813-2.28320313-1.67253256-5.522693-3.05598327-11.08186529-4.29492187-16.71679687-.19754883-.8760791-.39509766-1.75215821-.59863282-2.65478516-6.41738121-29.80248641-6.0634365-63.63320816.59863282-93.34521484.20367187-.95455078.40734375-1.90910157.6171875-2.89257813 6.57414224-30.17206639 19.87157209-59.38994556 38.3828125-84.10742187.65452148-.88558594.65452148-.88558594 1.32226562-1.7890625 29.11560745-39.1658838 69.95259357-67.98388733 116.67773438-82.2109375 1.12220947-.34901367 1.12220947-.34901367 2.26708984-.70507813 76.04516345-23.22545344 158.47328341-2.04746207 217.78491211 49.27270508z" fill="#21bbb3" transform="translate(492.052002 67.567627)"/><path d="m0 0v2l6 1v2l2.1875.25c3.40176868.90713831 5.26716084 2.35010879 7.8125 4.75v2h2c0-.66 0-1.32 0-2 1.64453125-1.2890625 1.64453125-1.2890625 3.8125-2.625.70769531-.44601562 1.41539062-.89203125 2.14453125-1.3515625 2.04296875-1.0234375 2.04296875-1.0234375 5.04296875-1.0234375 0-.66 0-1.32 0-2l6-1c0-.66 0-1.32 0-2 11.98387795-2.2980178 24.01974575-2.73233869 36 0v2l7 1v2c.886875.2475 1.77375.495 2.6875.75 5.52212388 2.08382033 9.34672737 5.95374631 13.3125 10.25.33.99.66 1.98 1 3 .99.33 1.98.66 3 1 .6875 2.0625.6875 2.0625 1 4l7-2c0-.66 0-1.32 0-2 3.96-.495 3.96-.495 8-1 0-.66 0-1.32 0-2 5.04878098-1.01946539 9.87586409-1.15036701 15-1.125.78117188-.00386719 1.56234375-.00773437 2.3671875-.01171875 4.32274081.00727734 8.37638095.277247 12.6328125 1.13671875v2l8 1v2c.886875.268125 1.77375.53625 2.6875.8125 3.1034666 1.1125635 5.62360685 2.28945778 8.3125 4.1875v2c.91023926.15976318.91023926.15976318 1.83886719.32275391 3.55645918 1.1145072 5.27229318 4.16729961 7.41113281 7.05224609.45890625.59039062.9178125 1.18078125 1.390625 1.7890625 3.359375 4.43917411 3.359375 4.43917411 3.359375 7.8359375h2c.65256456 1.70577342 1.29673041 3.41476089 1.9375 5.125.53947266 1.42699219.53947266 1.42699219 1.08984375 2.8828125 1.85827724 5.71662796 2.16550221 11.26606872 2.16015625 17.2421875.00064453.74564209.00128906 1.49128418.00195312 2.25952148-.05408505 5.66971143-.68052924 11.00715691-2.18945312 16.49047852-.66 0-1.32 0-2 0-.33 2.31-.66 4.62-1 7-.66 0-1.32 0-2 0-.12375.804375-.12375.804375-.25 1.625-1.90993356 6.04812295-5.9698363 9.49111699-10.75 13.375-.639375.886875-1.27875 1.77375-1.9375 2.6875-2.69879936 3.02592655-5.16436415 3.48789434-9.0625 4.3125v2c-1.65.33-3.3.66-5 1v2c-1.65.33-3.3.66-5 1v2c-1.62249941.83819158-3.24808497 1.6704116-4.875 2.5-.90492188.4640625-1.80984375.928125-2.7421875 1.40625-2.3828125 1.09375-2.3828125 1.09375-4.3828125 1.09375v2c-1.21236328.58007812-1.21236328.58007812-2.44921875 1.171875-1.60294922.78117187-1.60294922.78117187-3.23828125 1.578125-1.05574219.51046875-2.11148438 1.0209375-3.19921875 1.546875-3.14740486 1.60113399-3.14740486 1.60113399-5.73828125 3.828125-3.36510983 2.65666566-6.21591187 3.02908377-10.375 3.875v2c-1.65.33-3.3.66-5 1v2c-3.92592596 2.05643741-7.76570244 3.68938409-12 5v2c-1.65.33-3.3.66-5 1v2c-2.31.66-4.62 1.32-7 2v2c-1.65.33-3.3.66-5 1v2c-1.89454824.96087136-3.79069581 1.91858969-5.6875 2.875-1.05574219.53367187-2.11148438 1.06734375-3.19921875 1.6171875-2.6732403 1.29469355-5.34039455 2.44804504-8.11328125 3.5078125v2c-1.60032137.84069415-3.20541171 1.67231505-4.8125 2.5-.89332031.4640625-1.78664063.928125-2.70703125 1.40625-2.48046875 1.09375-2.48046875 1.09375-5.48046875 1.09375v2c-2.31.66-4.62 1.32-7 2v2c-1.65.33-3.3.66-5 1v2c-1.65.33-3.3.66-5 1v2c-2.31.66-4.62 1.32-7 2v2c-1.65.33-3.3.66-5 1v2c-1.62249941.83819158-3.24808497 1.6704116-4.875 2.5-.90492188.4640625-1.80984375.928125-2.7421875 1.40625-2.3828125 1.09375-2.3828125 1.09375-4.3828125 1.09375v2c-1.65.33-3.3.66-5 1v2c-1.62249941.83819158-3.24808497 1.6704116-4.875 2.5-.90492188.4640625-1.80984375.928125-2.7421875 1.40625-2.3828125 1.09375-2.3828125 1.09375-4.3828125 1.09375v2c-1.60032137.84069415-3.20541171 1.67231505-4.8125 2.5-.89332031.4640625-1.78664063.928125-2.70703125 1.40625-2.48046875 1.09375-2.48046875 1.09375-5.48046875 1.09375v2c-13.71428571 8-13.71428571 8-17 8v2c-3.465.99-3.465.99-7 2v2c-1.65.33-3.3.66-5 1v2c-1.65.33-3.3.66-5 1v2c-2.90600261 1.25664978-4.79604584 2-8 2v2c-2.64.33-5.28.66-8 1v2c-13.41353877 1.83747106-25.59938692 1.97067839-39 0 0-.66 0-1.32 0-2-.99580078-.07347656-.99580078-.07347656-2.01171875-.1484375-.88300781-.07476563-1.76601563-.14953125-2.67578125-.2265625-.87011719-.06960938-1.74023438-.13921875-2.63671875-.2109375-2.81780251-.43603951-5.04252087-1.34125272-7.67578125-2.4140625-1.92792077-.42148875-3.8665317-.79676438-5.8125-1.125-1.46373047-.25136719-1.46373047-.25136719-2.95703125-.5078125-.73605469-.12117187-1.47210938-.24234375-2.23046875-.3671875 0-.66 0-1.32 0-2-3.63-.33-7.26-.66-11-1 0-.66 0-1.32 0-2-.99580078-.07347656-.99580078-.07347656-2.01171875-.1484375-.88300781-.07476563-1.76601563-.14953125-2.67578125-.2265625-.87011719-.06960938-1.74023438-.13921875-2.63671875-.2109375-2.81780251-.43603951-5.04252087-1.34125272-7.67578125-2.4140625-1.92792077-.42148875-3.8665317-.79676438-5.8125-1.125-1.46373047-.25136719-1.46373047-.25136719-2.95703125-.5078125-.73605469-.12117187-1.47210938-.24234375-2.23046875-.3671875 0-.66 0-1.32 0-2-3.63-.33-7.26-.66-11-1 0-.66 0-1.32 0-2-.65226562-.06058594-1.30453125-.12117187-1.9765625-.18359375-4.71059967-.45160616-9.36545388-.95835664-14.0234375-1.81640625 0-.66 0-1.32 0-2-.99580078-.07347656-.99580078-.07347656-2.01171875-.1484375-4.70935871-.39874862-8.65719934-.86160594-12.98828125-2.8515625-4.93844573-1.51339466-9.87370933-2.65100297-14.9375-3.625-.68384766-.1340625-1.36769531-.268125-2.07226562-.40625-1.66288821-.32560049-3.32648799-.64756344-4.99023438-.96875 0-.66 0-1.32 0-2-.65226562-.04898438-1.30453125-.09796875-1.9765625-.1484375-4.98207691-.42619537-9.30836078-1.09711535-14.0234375-2.8515625-4.02047336-.98575529-7.86560862-1.19653804-12-1.25-1.19625-.02578125-2.3925-.0515625-3.625-.078125-3.6084545.35082197-5.4632791 1.23256829-8.375 3.328125.33 2.31.66 4.62 1 7 .99.33 1.98.66 3 1v3h2c3.24392128 9.93450892 3.24392128 21.06549108 0 31-.66 0-1.32 0-2 0-.185625 1.2065625-.185625 1.2065625-.375 2.4375-.20625.845625-.4125 1.69125-.625 2.5625-.66.33-1.32.66-2 1-.33.99-.66 1.98-1 3-2.21484375 2.04296875-2.21484375 2.04296875-4.9375 4.1875-.89589844.71542969-1.79179687 1.43085937-2.71484375 2.16796875-2.34765625 1.64453125-2.34765625 1.64453125-4.34765625 1.64453125v2c-1.65.33-3.3.66-5 1v2c-1.62249941.83819158-3.24808497 1.6704116-4.875 2.5-1.35738281.69609375-1.35738281.69609375-2.7421875 1.40625-2.3828125 1.09375-2.3828125 1.09375-4.3828125 1.09375v2c-.83144531.40992188-1.66289062.81984375-2.51953125 1.2421875-1.63001953.80824219-1.63001953.80824219-3.29296875 1.6328125-1.07894531.53367187-2.15789062 1.06734375-3.26953125 1.6171875-2.9963514 1.48002389-2.9963514 1.48002389-5.91796875 3.5078125-.99 0-1.98 0-3 0v2c-2.31.66-4.62 1.32-7 2v2c-1.65.33-3.3.66-5 1v2c-3.92592596 2.05643741-7.76570244 3.68938409-12 5v2c-1.65.33-3.3.66-5 1v2c-1.60032137.84069415-3.20541171 1.67231505-4.8125 2.5-1.33998047.69609375-1.33998047.69609375-2.70703125 1.40625-2.48046875 1.09375-2.48046875 1.09375-5.48046875 1.09375v2c-12.83501073 3.82319469-23.16498927 3.82319469-36 0 0-.66 0-1.32 0-2-1.32-.33-2.64-.66-4-1 0-.66 0-1.32 0-2-1.13115234-.32484375-1.13115234-.32484375-2.28515625-.65625-3.48095396-1.722947-4.32694505-3.44684499-6.15234375-6.84375-.5878125-1.07121094-1.175625-2.14242188-1.78125-3.24609375-.5878125-1.07378906-1.175625-2.14757812-1.78125-3.25390625-1.62720364-2.65847963-3.27424507-5.30291187-4.93359375-7.94140625-1.06640625-2.05859375-1.06640625-2.05859375-1.06640625-5.05859375-.66 0-1.32 0-2 0-.33-1.65-.66-3.3-1-5-.66 0-1.32 0-2 0-1.4606285-2.64738916-2-3.89448334-2-7-.66 0-1.32 0-2 0-.33-1.65-.66-3.3-1-5-.66 0-1.32 0-2 0-.45375-.928125-.9075-1.85625-1.375-2.8125-1.5671633-3.22671389-1.5671633-3.22671389-3.625-6.1875 0-.99 0-1.98 0-3-.66 0-1.32 0-2 0-.33-1.65-.66-3.3-1-5-.66 0-1.32 0-2 0-.6509259-1.24735567-1.29551669-2.49801832-1.9375-3.75-.35964844-.69609375-.71929687-1.3921875-1.08984375-2.109375-.92823807-2.04286933-1.50432203-3.95177876-1.97265625-6.140625-.66 0-1.32 0-2 0-.66-2.31-1.32-4.62-2-7-.66 0-1.32 0-2 0-1.72264494-3.29549466-3.29445932-6.33118845-4-10-.66 0-1.32 0-2 0-.28875-.969375-.5775-1.93875-.875-2.9375-.76714682-3.16914203-.76714682-3.16914203-3.125-4.0625-.625-3.0625-.625-3.0625-1-6-.99-.33-1.98-.66-3-1-1.09765625-2.03125-1.09765625-2.03125-2.0625-4.5-1.16452003-3.46056812-1.16452003-3.46056812-3.9375-5.5-.625-3.0625-.625-3.0625-1-6-.66 0-1.32 0-2 0-1.4606285-2.64738916-2-3.89448334-2-7-.66 0-1.32 0-2 0-.40992188-.75925781-.81984375-1.51851562-1.2421875-2.30078125-.53882813-.99386719-1.07765625-1.98773437-1.6328125-3.01171875-.53367187-.98613281-1.06734375-1.97226562-1.6171875-2.98828125-1.51503376-2.79508333-1.51503376-2.79508333-3.5078125-5.69921875 0-.99 0-1.98 0-3-.66 0-1.32 0-2 0-.40992188-.75925781-.81984375-1.51851562-1.2421875-2.30078125-.53882813-.99386719-1.07765625-1.98773437-1.6328125-3.01171875-.53367187-.98613281-1.06734375-1.97226562-1.6171875-2.98828125-1.51503376-2.79508333-1.51503376-2.79508333-3.5078125-5.69921875 0-.99 0-1.98 0-3-.66 0-1.32 0-2 0-.28875-.969375-.5775-1.93875-.875-2.9375-.76714682-3.16914203-.76714682-3.16914203-3.125-4.0625-.625-3.0625-.625-3.0625-1-6-.66 0-1.32 0-2 0-.33-.99-.66-1.98-1-3-.66-.33-1.32-.66-2-1-3.39400194-9.80489449-2.68201705-20.11006214 0-30h2c.0825-.721875.165-1.44375.25-2.1875 1.54876182-5.80785681 6.13783127-9.30324118 10.75-12.8125h2c0-.66 0-1.32 0-2l4-1c0-.66 0-1.32 0-2l5-1c0-.66 0-1.32 0-2 1.62249941-.83819158 3.24808497-1.6704116 4.875-2.5 1.35738281-.69609375 1.35738281-.69609375 2.7421875-1.40625 2.3828125-1.09375 2.3828125-1.09375 4.3828125-1.09375 0-.66 0-1.32 0-2 1.72526042-.71614583 3.45052083-1.43229167 5.17578125-2.1484375 2.08955807-.91962942 2.08955807-.91962942 4.82421875-2.8515625h3c0-.66 0-1.32 0-2l5-1c0-.66 0-1.32 0-2 3.465-.99 3.465-.99 7-2 0-.66 0-1.32 0-2 1.65-.33 3.3-.66 5-1 0-.66 0-1.32 0-2 2.31-.66 4.62-1.32 7-2 0-.66 0-1.32 0-2l5-1c0-.66 0-1.32 0-2l5-1c0-.66 0-1.32 0-2 2.31-.66 4.62-1.32 7-2 0-.66 0-1.32 0-2l6-1c0-.66 0-1.32 0-2 5.97174805-1.7257804 11.29870521-2.30972355 17.5-2.25.80308594-.00773438 1.60617187-.01546875 2.43359375-.0234375 6.62189196.0214648 14.11942132.32645257 19.06640625 5.2734375v2c1.32.66 2.64 1.32 4 2v2c.99.33 1.98.66 3 1 1.99396257 2.66083969 4 5.61242325 4 9h2c.66 1.65 1.32 3.3 2 5l8-2c0-.66 0-1.32 0-2 2.475-.495 2.475-.495 5-1 0-.66 0-1.32 0-2 1.62249941-.83819158 3.24808497-1.6704116 4.875-2.5.90492188-.4640625 1.80984375-.928125 2.7421875-1.40625 2.3828125-1.09375 2.3828125-1.09375 4.3828125-1.09375 0-.66 0-1.32 0-2 2.475-.495 2.475-.495 5-1 0-.66 0-1.32 0-2 1.62249941-.83819158 3.24808497-1.6704116 4.875-2.5.90492188-.4640625 1.80984375-.928125 2.7421875-1.40625 2.3828125-1.09375 2.3828125-1.09375 4.3828125-1.09375 0-.66 0-1.32 0-2 1.60032137-.84069415 3.20541171-1.67231505 4.8125-2.5.89332031-.4640625 1.78664063-.928125 2.70703125-1.40625 2.48046875-1.09375 2.48046875-1.09375 5.48046875-1.09375 0-.66 0-1.32 0-2 2.475-.495 2.475-.495 5-1 0-.66 0-1.32 0-2 2.31-.66 4.62-1.32 7-2 0-.66 0-1.32 0-2 2.475-.495 2.475-.495 5-1 0-.66 0-1.32 0-2 2.31-.66 4.62-1.32 7-2 0-.66 0-1.32 0-2 1.65-.33 3.3-.66 5-1 0-.66 0-1.32 0-2 1.65-.33 3.3-.66 5-1 0-.66 0-1.32 0-2 1.76755526-.84026396 3.53917263-1.67198722 5.3125-2.5.98613281-.4640625 1.97226562-.928125 2.98828125-1.40625 2.69921875-1.09375 2.69921875-1.09375 5.69921875-1.09375 0-.66 0-1.32 0-2 6.88477072-1.62124948 13.37118608-2.32298969 20.4375-2.25.91289795.00386719 1.8257959.00773437 2.76635742.01171875 6.41459316.08226035 12.56792337.60464998 18.79614258 2.23828125v2c5.445.495 5.445.495 11 1v2c.65226562.06058594 1.30453125.12117188 1.9765625.18359375 4.71059967.45160616 9.36545388.95835664 14.0234375 1.81640625v2c.99580078.07347656.99580078.07347656 2.01171875.1484375 4.70935871.39874862 8.65719934.86160594 12.98828125 2.8515625 4.93844573 1.51339466 9.87370933 2.65100297 14.9375 3.625.68384766.1340625 1.36769531.268125 2.07226562.40625 1.66288821.32560049 3.32648799.64756344 4.99023438.96875v2c.65226562.04898438 1.30453125.09796875 1.9765625.1484375 5.00377241.42805133 9.27276752 1.16903355 14.0234375 2.8515625 3.32029603.73728628 6.6562129 1.37882216 10 2v2l11 1v2c.65226562.04898438 1.30453125.09796875 1.9765625.1484375 5.01054319.42863054 9.25973326 1.19884878 14.0234375 2.8515625 3.65331771.74692309 7.32240351 1.384886 11 2v1c1.65.33 3.3.66 5 1 0-.66 0-1.32 0-2l2.375-.75c3.1105082-1.48119438 3.24120468-2.22294774 4.625-5.25 1.64429829-1.68873879 3.31384218-3.35305515 5-5 .763125-.94875 1.52625-1.8975 2.3125-2.875 2.60496284-3.19662633 5.62102326-5.78200088 8.7578125-8.4453125 1.69423891-1.47474237 3.25497117-2.99411182 4.8046875-4.6171875 2.125-2.0625 2.125-2.0625 4.125-2.0625.33-.99.66-1.98 1-3h2c.33-.99.66-1.98 1-3 2.0625-.6875 2.0625-.6875 4-1 0-.66 0-1.32 0-2 1.28913487-.67154933 2.58140204-1.33708859 3.875-2 .71929688-.37125 1.43859375-.7425 2.1796875-1.125 1.9453125-.875 1.9453125-.875 3.9453125-.875 0-.66 0-1.32 0-2 3.32296294-.72822379 6.65447772-1.38371958 10-2 .74507812-.14050781 1.49015625-.28101563 2.2578125-.42578125 9.58149328-1.38547725 20.39992883-.05107629 29.7421875 2.42578125z" fill="#030403" transform="translate(569 471)"/><path d="m0 0c9.18753566 8.08846597 17.39420272 16.79203985 24.94799805 26.43237305.77859375.96164062 1.5571875 1.92328125 2.359375 2.9140625 17.55288595 22.08085971 30.26460726 47.18481662 38.640625 74.0859375.27956543.87285644.55913086 1.74571289.84716797 2.64501953.2760205.88155762.55204101 1.76311523.83642578 2.67138672.25193115.79994384.5038623 1.59988769.76342773 2.42407226.55297852 2.25952149.55297852 2.25952149.55297852 6.25952149.88558593-.44730469 1.77117187-.89460938 2.68359375-1.35546875 6.85015954-3.37591595 13.66990723-6.29760855 21.00390625-8.45703125.65089599-.19424561 1.30179199-.38849121 1.97241211-.58862305 11.02811998-3.10127568 21.91297569-3.98946357 33.34008789-3.97387695.67709015.00054382 1.35418029.00108764 2.05178833.00164795 34.16833846.12560596 63.91971278 13.35768469 88.19821167 37.18585205 13.24441826 13.36910094 23.08668988 29.47212618 29.125 47.3125.33970825 1.00003051.33970825 1.00003051.68627929 2.02026367 4.00502553 12.63818088 5.49519272 24.94226171 5.37622071 38.10473633-.00456208 1.07784256-.00456208 1.07784256-.00921631 2.17745971-.07211598 11.55923033-.92861922 22.49965553-4.42828369 33.57254029-.20898926.67691894-.41797852 1.35383789-.63330078 2.05126953-10.48178271 32.90573133-33.30433767 58.77745418-63.71582032 74.77319336-7.92934395 3.98765558-16.1109576 6.80881527-24.6508789 9.17553711-1.18851563.3403125-2.37703125.680625-3.6015625 1.03125-32.94245497 7.75116587-67.87902532.31817773-96.3984375-17.03125-11.02343107-7.0654359-19.9684932-16.6279123-29-26-.73863282.87140625-1.47726563 1.7428125-2.23828125 2.640625-31.40625943 36.93656018-67.68109291 65.02408538-114.76171875 79.359375-.74813965.23267578-1.4962793.46535156-2.26708985.70507812-42.00672342 12.82954964-89.85874656 12.31803026-131.73291015-.70507812-.77263184-.23525391-1.54526367-.47050782-2.3413086-.71289063-42.1877558-13.07104798-81.37278023-39.46418078-108.6586914-74.28710937-.77859375-.96164063-1.5571875-1.92328125-2.359375-2.9140625-17.50136211-22.01604469-30.4656007-47.18674794-38.640625-74.0859375-.23267578-.75345703-.46535157-1.50691407-.70507813-2.28320313-1.67253256-5.522693-3.05598327-11.08186529-4.29492187-16.71679687-.19754883-.8760791-.39509766-1.75215821-.59863282-2.65478516-6.41738121-29.80248641-6.0634365-63.63320816.59863282-93.34521484.20367187-.95455078.40734375-1.90910157.6171875-2.89257813 6.57414224-30.17206639 19.87157209-59.38994556 38.3828125-84.10742187.65452148-.88558594.65452148-.88558594 1.32226562-1.7890625 29.11560745-39.1658838 69.95259357-67.98388733 116.67773438-82.2109375 1.12220947-.34901367 1.12220947-.34901367 2.26708984-.70507813 76.04516345-23.22545344 158.47328341-2.04746207 217.78491211 49.27270508zm-205.73950195-32.75512695c-1.45285401.39010254-1.45285401.39010254-2.9350586.78808593-32.85738977 9.03591844-63.34829543 26.19876981-87.8515625 49.92480469-1.05645412 1.02095727-2.11977307 2.03484082-3.18847656 3.04296875-35.40511957 33.41875961-60.90478293 83.77690312-62.52929687 132.89819336-.09929597 4.76147475-.09053283 9.52128419-.05810547 14.28344727.00376648.83993499.00753296 1.67986999.01141357 2.54525757.04802741 17.93570338.04802741 17.93570338 2.23858643 35.70474243.16709472.90266601.33418945 1.80533203.50634765 2.73535156 7.76833416 39.94202008 26.72725804 75.73985214 54.49365235 105.26464844.5244873.55848633 1.04897461 1.11697265 1.58935547 1.69238281 27.64506716 29.19180906 63.09548704 48.9867903 102.03564453 58.55761719 1.0007959.24661377 2.00159179.49322754 3.03271484.74731445 14.30471504 3.35836699 28.21827857 4.38188173 42.84228516 4.31518555.83216034-.00182282 1.66432068-.00364563 2.52169799-.00552368 13.51067742-.04967102 26.68512584-.71815766 39.97830201-3.30697632.87285644-.16628907 1.74571289-.33257813 2.64501953-.50390625 37.62697595-7.42773424 73.29880091-26.364432 100.82910156-53.02148438 1.05645413-1.02095727 2.11977308-2.03484082 3.18847656-3.04296875 7.12178872-6.72222966 13.69710698-13.74504157 19.77490235-21.43164062.57419677-.70592285 1.14839355-1.41184571 1.73999023-2.13916016 3.06456252-3.96925569 3.06456252-3.96925569 3.91235352-8.79052734-1.47470613-4.15454844-3.16871485-8.17065329-4.96484375-12.1953125-3.11039348-7.19784875-5.71196852-14.12988759-7.125-21.875-.30357422-1.5178711-.30357422-1.5178711-.61328125-3.06640625-2.65586567-15.30284504-2.48422524-31.7308895.61328125-46.93359375.24492187-1.24523438.48984375-2.49046875.7421875-3.7734375 4.48569062-20.98346821 15.15025517-40.99790251 30.2578125-56.2265625l2.5-2.625c2.5-2.375 2.5-2.375 4.8359375-4.09765625.83789062-.64839844 1.67578125-1.29679688 2.5390625-1.96484375.80179687-.58136719 1.60359375-1.16273438 2.4296875-1.76171875 2.73907363-4.12123292 1.63450003-7.86607391.6953125-12.55078125-.84882419-3.67767182-1.87931365-7.27148594-3-10.875-.30832764-.99668701-.61665528-1.99337403-.93432617-3.02026367-15.90927818-49.77325673-51.0861822-91.97905618-96.06567383-118.10473633-.63776368-.37576172-1.27552735-.75152344-1.93261719-1.13867188-19.17599875-11.17067266-40.31644835-18.68494118-62.06738281-22.86132812-1.12897705-.24121582-1.12897705-.24121582-2.28076172-.48730469-13.00761613-2.7423142-26.10696238-2.82389727-39.34423828-2.88769531-.86419556-.00794586-1.72839112-.01589173-2.61877442-.02407837-16.56046147-.11684147-32.4419093 1.86002649-48.44372558 6.21157837z" fill="#030504" transform="translate(492.052002 67.567627)"/><path d="m0 0c3.4864638.89118654 6.99321084 1.69299831 10.5 2.5 5.59804648 1.28825337 11.06428491 2.62338408 16.5 4.5 1.49416133.35859872 2.99409407.69445387 4.5 1 2.44366779.49581665 4.73877665 1.08018886 7.10546875 1.875 4.68827257 1.55376582 9.44170133 2.83031722 14.20703125 4.125.94681641.26039063 1.89363281.52078125 2.86914062.7890625 4.364027 1.18937005 8.71953361 2.32451699 13.14257813 3.2734375 3.48981274.75092806 6.80046768 1.76571064 10.17578125 2.9375 2.0573312.58112033 4.12050863 1.14173525 6.1875 1.6875.61222412.16226074 1.22444824.32452148 1.85522461.49169922 4.57228079 1.20691297 9.15125013 2.38756589 13.73071289 3.56689453 1.19858643.3091333 2.39717285.6182666 3.63208008.93676758 2.40815646.62040695 4.81683631 1.23878644 7.22607422 1.85498047 1.12317627.28915283 2.24635254.57830566 3.40356445.8762207 1.50639038.38599365 1.50639038.38599365 3.04321289.77978516 3.01430828.8317244 5.95794619 1.81090253 8.92163086 2.80615234 1.66014616.36442233 3.32706064.69972883 5 1 3.81392972.68455149 7.33417294 1.74528525 11 3 .97839844.28359375 1.95679688.5671875 2.96484375.859375 8.15254105 2.44254844 13.9635006 5.29188301 18.47265625 12.703125 2.89943583 6.40601849 2.55104273 14.77669022.5625 21.4375-.66 0-1.32 0-2 0-.04125.556875-.0825 1.11375-.125 1.6875-1.73169301 4.57661723-5.98898926 6.80868997-10.0625 9.125-11.68878194 3.64076815-23.2030589-.61082433-34.51171875-3.8828125-2.6184577-.73750643-5.20168264-1.38070215-7.86328125-1.9296875-3.57814552-.77151864-6.97092165-1.81821193-10.4375-3-1.66088045-.36106097-3.32618981-.70462173-5-1 0-.66 0-1.32 0-2-.6077124-.02070557-1.2154248-.04141113-1.84155273-.06274414-8.77612443-.5286822-16.85043607-2.88868595-25.22094727-5.37475586-2.78094327-.81679176-5.56358914-1.62751628-8.34765625-2.43359375-.66242203-.19237747-1.32484406-.38475494-2.00733948-.58296204-4.52240007-1.2942571-9.03864442-2.35295724-13.66844177-3.17729187-2.73316235-.52641264-5.28667936-1.45711125-7.9140625-2.36865234-10.35046578-3.50479454-10.35046578-3.50479454-20.75-1.75-2.40346513 1.86936177-3.8552475 3.03390302-5.25 5.75-.4085132 4.28938857-.48025674 6.86254983 1.1875 10.8125 4.00736003 4.836469 8.44650834 5.66184125 14.3828125 6.71875 2.91387659.56216269 5.63075248 1.49237732 8.4296875 2.46875 1.66088045.36106097 3.32618981.70462173 5 1v2l1.625.078125c9.37751896.67863624 18.64654012 2.99592728 27.546875 5.98828125 2.61644729.86371672 5.12024602 1.44756419 7.828125 1.93359375 3.8165881.68502863 7.32298999 1.77433 11 3 2.65569948.71223541 5.32683485 1.35683245 8 2 4.75475833 1.144002 9.35693987 2.45231329 14 4 1.66014616.36442233 3.32706064.69972883 5 1 3.8165881.68502863 7.32298999 1.77433 11 3 2.65569948.71223541 5.32683485 1.35683245 8 2 4.75270743 1.14350855 9.36807587 2.42093496 14 4 8.98925227 2.9149249 20.76407589 2.06610826 29.1171875-2.125 1.8828125-.875 1.8828125-.875 4.8828125-.875 0-.66 0-1.32 0-2 .56380371-.2673999 1.12760742-.5347998 1.70849609-.81030273 7.55475431-3.6715471 14.72857996-7.92144342 21.91650391-12.25219727 19.83344694-11.9375 19.83344694-11.9375 23.375-11.9375 0-.66 0-1.32 0-2 .69222656-.32871094 1.38445312-.65742187 2.09765625-.99609375 6.35545863-3.08980795 12.44900092-6.44342319 18.48193359-10.1184082 6.15780906-3.74773023 12.37779079-7.38444155 18.60791016-11.01049805.98516602-.57363281 1.97033203-1.14726563 2.98535156-1.73828125 1.95177764-1.13609967 3.90376268-2.27184311 5.85595703-3.40722656 3.09241784-1.80005653 6.18226035-3.60448388 9.27197266-5.40917969 5.8537347-3.41444189 11.73201038-6.77896778 17.640625-10.09765625 10.88896077-6.11799429 21.71761646-12.31880296 32.43579102-18.73217773 2.53302382-1.51087107 5.07419771-3.00604652 7.62280273-4.49047852.94810547-.55316895 1.89621094-1.10633789 2.87304688-1.67626953.95455078-.54124512 1.90910156-1.08249024 2.89257812-1.64013672 1.28825684-.73585327 1.28825684-.73585327 2.60253906-1.48657227 8.29714983-3.77374078 17.13458452-2.40001259 25.63183594-.19702148v2c.57621094.09023438 1.15242188.18046875 1.74609375.2734375 2.83653784.91437788 4.21278381 2.25199328 6.31640625 4.3515625.67160156.65226563 1.34320312 1.30453125 2.03515625 1.9765625 4.34152437 5.47370834 5.48782406 10.93634323 5.46484375 17.7109375-.00241699.74475586-.00483398 1.48951172-.00732422 2.25683594-.21968823 6.60787737-2.03960699 11.48769575-6.55517578 16.43066406-5.05603448 4.70600132-10.78792792 7.99319484-16.75 11.4375-1.89081338 1.10254159-3.78143943 2.20540449-5.671875 3.30859375-.92731934.53906982-1.85463867 1.07813965-2.81005859 1.63354492-2.71346085 1.58839651-5.41086958 3.20090689-8.10400391 4.82348633-3.48215839 2.09557728-6.97816388 4.14929579-10.5390625 6.109375-.88429688.49113281-1.76859375.98226562-2.6796875 1.48828125-2.17693856 1.06760405-4.07768419 1.7311992-6.4453125 2.19921875v2c-.61101562.28230469-1.22203125.56460938-1.8515625.85546875-10.08045689 4.84145887-19.58152479 10.632747-29.17138672 16.3671875-4.96214034 2.96247185-9.93869784 5.9004841-14.91455078 8.83984375-.90476074.53568604-1.80952148 1.07137207-2.74169922 1.62329102-3.70486746 2.19151857-7.41171787 4.37644422-11.15283203 6.50561523-2.66656967 1.52234495-5.29739243 3.08413855-7.91796875 4.68359375-4.33688431 2.61124716-8.74446775 5.05448323-13.1953125 7.46484375-12.3895546 6.73345359-24.53595094 13.86271544-36.65039062 21.07568359-7.09254991 4.22209774-14.21750529 8.3584605-21.41601563 12.39697266-1.89211937 1.06215753-3.78403715 2.12467424-5.67578125 3.1875-1.00297119.56307861-2.00594238 1.12615723-3.03930664 1.70629883-5.03010832 2.83955812-10.02166463 5.72158309-14.94506836 8.74291992-1.33285034.81694336-1.33285034.81694336-2.69262695 1.65039063-1.6684401 1.02965503-3.33143318 2.06820986-4.98779297 3.1171875-11.83164561 7.30419815-25.70291044 7.58796128-39.12036133 4.73242187-5.95528484-1.41789938-11.83472358-3.04265819-17.63671875-4.99609375-3.40832538-1.12382621-6.84144157-1.97839953-10.328125-2.828125-5.57441875-1.37310572-11.1384654-2.77742259-16.6875-4.25-1.17820312-.31195312-2.35640625-.62390625-3.5703125-.9453125-2.15676979-.60675084-4.29957106-1.26630224-6.421875-1.984375-2.63607921-.86440538-5.15665102-1.45600146-7.8828125-1.9453125-2.70443409-.48541125-5.19823524-1.06617032-7.80859375-1.9375-4.38999204-1.46153958-8.85874241-2.49317601-13.35742187-3.5625-3.76031619-.91418893-7.25420662-2.04873875-10.83398438-3.5-1.63715926-.37361479-3.28393448-.70742601-4.9375-1-3.841415-.68183594-7.36402977-1.76264415-11.0625-3-2.67610176-.73445391-5.36762128-1.4007324-8.0625-2.0625-.69416016-.17337891-1.38832031-.34675781-2.10351562-.52539062-3.59679676-.89151373-7.19268401-1.72359839-10.83398438-2.41210938 0-.66 0-1.32 0-2-.64066406-.04898438-1.28132813-.09796875-1.94140625-.1484375-5.26818638-.45537229-9.97948604-1.31824696-15.05859375-2.8515625-11.14118237-2.10210988-22.56697603-2.03519753-32.3125 4.1875-.77988281.55042969-1.55976563 1.10085938-2.36328125 1.66796875-2.9900338 1.4724032-4.19452179 1.19097661-7.32421875.14453125-1.57055664-1.9074707-1.57055664-1.9074707-2.91015625-4.42578125-.50917969-.93247559-1.01835937-1.86495117-1.54296875-2.82568359-.53109375-1.01014161-1.0621875-2.02028321-1.609375-3.06103516-1.14469274-2.10419525-2.29187984-4.20703524-3.44140625-6.30859375-.86842529-1.59884033-.86842529-1.59884033-1.75439453-3.22998047-3.07726309-5.56357433-6.39012365-10.98171838-9.69506836-16.41186523-3.14301776-5.18059837-6.12500054-10.42900999-9.04663086-15.73706055-2.01195569-3.60917526-4.03562013-7.21168807-6.0625-10.8125-.5571167-.99177246-1.1142334-1.98354492-1.68823242-3.00537109-2.84397549-5.03432924-5.73682875-10.02554624-8.76489258-14.95166016-.83132446-1.35484497-.83132446-1.35484497-1.67944336-2.73706055-1.05596864-1.70947376-2.12149594-3.41309014-3.19775391-5.10986328-.47493896-.76852295-.94987793-1.5370459-1.43920898-2.32885742-.62998901-.99797607-.62998901-.99797607-1.27270508-2.01611328-1.0829929-2.46604602-1.056002-4.37350381-.89526367-7.03857422.85549438-.40762573.85549438-.40762573 1.72827148-.82348633 6.73660348-3.28155717 13.17203834-6.96991433 19.59661866-10.82247925 1.77177824-1.06201517 3.54651688-2.1189217 5.32208252-3.17459106 5.24833024-3.12212819 10.48786772-6.25846485 15.71630859-9.41381836.77529053-.46446533 1.55058105-.92893066 2.34936523-1.4074707 1.39522397-.83600018 2.78695408-1.67787255 4.17431641-2.52685547 3.34746951-2.00037624 6.22021335-3.36504808 10.11303711-3.83129883 0-.66 0-1.32 0-2l5-1c0-.66 0-1.32 0-2 1.24523437-.60908203 1.24523437-.60908203 2.515625-1.23046875 3.80396748-1.9318355 7.52012557-3.9846041 11.234375-6.08203125.70592285-.39590332 1.4118457-.79180664 2.13916016-1.19970703 3.89431197-2.19439268 7.70862402-4.47055628 11.48583984-6.86279297 9.90522795-5.96301348 19.70638402-7.31955494 30.625-3.625z" fill="#6d3522" transform="translate(334 507)"/><path d="m0 0c.74362793.00620361 1.48725586.01240723 2.25341797.01879883 29.12269083.28453563 53.77049785 11.28863517 74.80908203 31.48120117 19.95300973 21.16699941 30.68024206 48.26644 30.20703125 77.30859375-.85012435 24.94567337-9.96333239 47.79025154-26.20703125 66.69140625-.77537109.99193359-.77537109.99193359-1.56640625 2.00390625-16.10602203 19.98115516-43.36373251 32.1985985-68.43359375 34.99609375-29.50142253 1.70110359-56.00748945-6.26659415-79-25-1.16595703-.91845703-1.16595703-.91845703-2.35546875-1.85546875-20.13733102-16.71576681-32.77247009-43.40644467-35.64453125-69.14453125-1.70110359-29.50142253 6.26659415-56.00748945 25-79 .61230469-.77730469 1.22460938-1.55460937 1.85546875-2.35546875 19.24501607-23.18429441 49.43330976-35.58799503 79.08203125-35.14453125z" fill="#20bbb3" transform="translate(619.9375 189.5)"/><path d="m0 0c2.08751157 2.4086672 3.21328972 5.01723125 4.625 7.875 1.08784889 1.9674446 2.19362551 3.92503248 3.3125 5.875.3290332.57371338.65806641 1.14742676.99707031 1.73852539 4.21901281 7.33647769 8.49469407 14.64035034 12.76586914 21.9465332 1.13902304 1.94866707 2.2760966 3.89847541 3.41088867 5.84960938.93120852 1.59356813 1.87080326 3.18231321 2.82421876 4.76269531 2.68945312 4.50802446 2.68945312 4.50802446 2.68945312 7.82763672h2v3h2l2 7h2l1.1875 2.4375c1.83430782 3.60536364 3.80429656 7.10579315 5.82421875 10.609375.98828125 1.953125.98828125 1.953125.98828125 3.953125h2c.42724365.87253418.8544873 1.74506836 1.29467773 2.64404297 1.56895335 3.08759236 3.23472568 6.06697129 4.99047852 9.05126953.91942383 1.56814453.91942383 1.56814453 1.85742187 3.16796875.63357422 1.07636719 1.26714844 2.15273438 1.91992188 3.26171875 1.26286482 2.14776403 2.52463005 4.29617509 3.78515625 6.4453125.55695557.94633301 1.11391113 1.89266602 1.68774414 2.86767578 3.46459961 6.06059482 3.46459961 6.06059482 3.46459961 9.56201172h2c4 6.625 4 6.625 4 10h2l1.125 2.3125c2.07456631 4.1791988 4.38419114 8.22941707 6.66796875 12.296875 1.20703125 2.390625 1.20703125 2.390625 1.20703125 4.390625h2c.33 1.65.66 3.3 1 5h2c.42796875.86882812.8559375 1.73765625 1.296875 2.6328125 1.07264851 2.12069499 2.18256663 4.22333328 3.34375 6.296875 4.88198338 8.93450356 4.88198338 8.93450356 4.421875 13.5703125-.97162084 3.20063334-1.66027201 5.19386113-4.0625 7.5-.66 0-1.32 0-2 0v2c-1.65.33-3.3.66-5 1v2c-.71470459.34393799-1.42940918.68787598-2.16577148 1.04223633-7.86944573 3.85227863-15.39211061 8.12944141-22.89672852 12.64526367-1.17866001.70375586-2.35770162 1.40687298-3.53710938 2.109375-2.35310494 1.40161579-4.70553016 2.80435464-7.0571289 4.20849609-4.77209277 2.84708617-9.55003095 5.68327372-14.34326172 8.49462891-1.16414429.69355591-1.16414429.69355591-2.35180664 1.40112305-5.3038355 3.09887695-5.3038355 3.09887695-8.64819336 3.09887695v2c-7.3921371 4.88928753-14.0152913 7.78862256-23 6-2.84908569-2.06788477-3.93899124-4.71943935-5.375-7.875-2.98396758-6.15537031-6.49129766-11.89532944-10.125-17.6875-4.41135497-7.0367187-8.70701331-14.0439245-12.5-21.4375-.33515625-.63164063-.6703125-1.26328125-1.015625-1.9140625-1.984375-3.80639205-1.984375-3.80639205-1.984375-6.0859375-.66 0-1.32 0-2 0-.83819158-1.62249941-1.6704116-3.24808497-2.5-4.875-.4640625-.90492188-.928125-1.80984375-1.40625-2.7421875-1.09375-2.3828125-1.09375-2.3828125-1.09375-4.3828125-.66 0-1.32 0-2 0-.44085938-.95132813-.44085938-.95132813-.890625-1.921875-3.86106185-8.03278385-8.33719821-15.57830053-13.05761719-23.13378906-.50821289-.8259668-1.01642578-1.6519336-1.54003906-2.50292969-.45930908-.73532959-.91861816-1.47065918-1.3918457-2.22827148-1.21607998-2.40326249-1.71058892-4.56138144-2.11987305-7.21313477-.66 0-1.32 0-2 0-1.34130761-2.26645058-2.67316234-4.53760097-4-6.8125-.3815625-.64259766-.763125-1.28519531-1.15625-1.94726562-2.84375-4.90039063-2.84375-4.90039063-2.84375-8.24023438-.66 0-1.32 0-2 0-1.72264494-3.29549466-3.29445932-6.33118845-4-10-.66 0-1.32 0-2 0-.48210937-.97582031-.96421875-1.95164062-1.4609375-2.95703125-.63791408-1.28520924-1.27594081-2.57036257-1.9140625-3.85546875-.31710938-.64259766-.63421875-1.28519531-.9609375-1.94726562-1.42864861-2.87217899-2.88191723-5.56701648-4.6640625-8.24023438 0-.99 0-1.98 0-3-.66 0-1.32 0-2 0-.33-1.32-.66-2.64-1-4-.66 0-1.32 0-2 0-.48919922-.99580078-.48919922-.99580078-.98828125-2.01171875-.65548828-1.32451172-.65548828-1.32451172-1.32421875-2.67578125-.45375-.92167969-.9075-1.84335937-1.375-2.79296875-1.27235067-2.59262757-1.27235067-2.59262757-3.125-5.01953125-1.92476586-4.05213865-1.85742641-8.10585902-1.1875-12.5 1.875-3.125 1.875-3.125 4-5h2c0-.66 0-1.32 0-2 1.62249941-.83819158 3.24808497-1.6704116 4.875-2.5.90492187-.4640625 1.80984375-.928125 2.7421875-1.40625 2.3828125-1.09375 2.3828125-1.09375 4.3828125-1.09375 0-.66 0-1.32 0-2 3.82989106-1.80230168 6.78121808-2.19622241 11-2 .94903868 1.66081769 1.89762394 3.32189635 2.84375 4.984375.76185884 1.32810528 1.53251526 2.65120822 2.3125 3.96875 2.84375 4.834375 2.84375 4.834375 2.84375 7.046875h2c.41121094.83917969.82242188 1.67835938 1.24609375 2.54296875 1.84855236 3.64358316 3.80837704 7.21256499 5.81640625 10.76953125.38341553.68280029.76683105 1.36560059 1.16186523 2.0690918 2.14909552 3.80816783 4.34109061 7.5858944 6.58813477 11.3371582.45882568.76787842.91765137 1.53575684 1.39038086 2.3269043.89332532 1.48941022 1.79241541 2.97538082 2.69775391 4.45751953 3.09936523 5.16684083 3.09936523 5.16684083 3.09936523 8.49682617h2c.54269531 1.02480469 1.08539063 2.04960938 1.64453125 3.10546875.7225862 1.36071428 1.44524637 2.72138929 2.16796875 4.08203125.35642578.67353516.71285156 1.34707031 1.08007812 2.04101562 1.94266711 3.65363997 3.94328998 7.24247384 6.10742188 10.77148438 4 6.67558528 4 6.67558528 4 9h2c.433125.7425.86625 1.485 1.3125 2.25 1.94354936 3.16726562 3.48210368 4.85590218 6.6875 6.75 4.5935883.08202836 6.39506355-.44883568 9.8125-3.5625.721875-.804375 1.44375-1.60875 2.1875-2.4375h2c-.02882812-8.97515402-4.20472831-15.24614191-8.8125-22.625-.73393405-1.19959696-1.46636767-2.40011327-2.19726562-3.6015625-1.38742348-2.27671889-2.78010162-4.54988648-4.17626954-6.82128906-5.81396484-9.46197347-5.81396484-9.46197347-5.81396484-12.95214844-.66 0-1.32 0-2 0-.33-1.65-.66-3.3-1-5-.66 0-1.32 0-2 0-.33-1.65-.66-3.3-1-5-.66 0-1.32 0-2 0-.28230469-.61101562-.56460938-1.22203125-.85546875-1.8515625-4.09992291-8.53649639-8.8929606-16.58919621-13.82495117-24.66845703-.5566333-.92280762-1.1132666-1.84561524-1.68676758-2.79638672-.75966064-1.24438843-.75966064-1.24438843-1.53466797-2.51391602-1.09814453-2.16967773-1.09814453-2.16967773-1.09814453-5.16967773-.66 0-1.32 0-2 0-2.23401969-2.83548653-2.97694544-4.82884923-3.4609375-8.421875.4609375-3.578125.4609375-3.578125 3.0234375-5.87109375 1.134375-.62519531 2.26875-1.25039063 3.4375-1.89453125.59143799-.33386719 1.18287598-.66773438 1.79223633-1.01171875 1.72068468-.9613865 3.46393895-1.88203474 5.20776367-2.80078125.84949219-.46019531 1.69898438-.92039062 2.57421875-1.39453125 4.98077242-2.60546875 4.98077242-2.60546875 7.42578125-2.60546875 0-.66 0-1.32 0-2l5-1c0-.66 0-1.32 0-2 5.89723396-3.01135351 12.07093703-4.86113509 18.375-1.875z" fill="#00bdd6" transform="translate(169.375 539.125)"/><path d="m0 0h19v50h58c0-16.17 0-32.34 0-49h19v118c-6.27 0-12.54 0-19 0 0-16.83 0-33.66 0-51-19.47 0-38.94 0-59 0v51c-5.94 0-11.88 0-18 0 0-39.27 0-78.54 0-119z" fill="#fcfefe" transform="translate(382 184)"/><path d="m0 0h19c.33 16.5.66 33 1 50 4.64667211-4.64667211 9.01773382-9.07975897 13.27148438-14.01757812 2.90234867-3.32868238 5.94503832-6.5236221 8.97851562-9.73242188 4.66706899-4.95974073 9.32731801-9.92476573 13.9375-14.9375.83917969-.91136719 1.67835938-1.82273438 2.54296875-2.76171875 2.30332942-2.47214606 2.30332942-2.47214606 4.03149414-5.1796875 2.23803711-2.37109375 2.23803711-2.37109375 5.07885742-2.9387207 1.60246582.03927612 1.60246582.03927612 3.23730469.0793457 1.74023438.02416992 1.74023438.02416992 3.515625.04882813 1.2065625.04189453 2.413125.08378906 3.65625.12695312 1.83304688.03383789 1.83304688.03383789 3.703125.06835938 3.01686002.05892304 6.03125015.14114797 9.046875.24414062-4.0410556 4.79101727-8.20562581 9.43542352-12.5 14-1.24093038 1.32417661-2.48181451 2.64839658-3.72265625 3.97265625-.62793457.66918457-1.25586914 1.33836914-1.90283203 2.02783203-2.36928232 2.52727562-4.73201365 5.06061172-7.09423828 7.59448242-5.66852616 6.08021134-11.34689464 12.15120114-17.03027344 18.2175293-.64445068.68827881-1.28890137 1.37655762-1.95288086 2.08569336-.89730835.95724976-.89730835.95724976-1.81274414 1.93383789-.79325684.84655151-.79325684.84655151-1.60253906 1.71020508-1.10912466 1.17006772-2.24183243 2.31776016-3.38183594 3.45776367.31864184 3.40808226 1.66799432 4.98029969 4.125 7.25 2.47969642 2.37449718 4.82577521 4.77006744 7.0625 7.375 3.15332616 3.65644112 6.40526653 7.20980349 9.6875 10.75 5.09293265 5.49654441 10.12575625 11.04296645 15.125 16.625 1.49956619 1.667057 2.99957053 3.33371995 4.5 5 .73089844.81339844 1.46179688 1.62679687 2.21484375 2.46484375 1.61209337 1.78845914 3.22982315 3.5718455 4.8515625 5.3515625.82371094.90621094 1.64742188 1.81242187 2.49609375 2.74609375.75410156.82628906 1.50820313 1.65257812 2.28515625 2.50390625 1.65234375 1.93359375 1.65234375 1.93359375 1.65234375 2.93359375-24.16100843 2.07985725-24.16100843 2.07985725-29.9296875-2.390625-2.84866598-2.88302696-4.93956515-6.17556104-7.0703125-9.609375-1.15665641-1.38060478-2.34108635-2.73884132-3.5625-4.0625-.53753906-.62003906-1.07507813-1.24007812-1.62890625-1.87890625-2.23870625-2.54816025-4.52269587-5.05269968-6.80859375-7.55859375-3.44957184-3.78256218-6.8546501-7.59563969-10.2109375-11.4609375-2.8521294-3.25068023-5.76607272-6.44540233-8.67578125-9.64453125-2.11619902-2.39783734-4.11543634-4.89722511-6.11328125-7.39453125-.33 18.15-.66 36.3-1 55-6.27 0-12.54 0-19 0 0-39.6 0-79.2 0-120z" fill="#fafdfc" transform="translate(180 184)"/><path d="m0 0c6.78556464 5.03606362 12.67264306 11.20171493 15.1875 19.375.03852535 1.66622135.04533469 3.33395002 0 5-2.43407005.86524753-4.87143184 1.71742865-7.3125 2.5625-1.03543945.3702832-1.03543945.3702832-2.09179688.74804688-5.25585937 1.80273437-5.25585937 1.80273437-8.59570312.68945312-.921875-1.63671875-.921875-1.63671875-1.75-3.6875-2.65603481-5.64660836-6.53271592-9.01292935-12.125-11.6875-7.44891851-1.4897837-13.23900122-.74790194-20.125 2.375-1.175625.433125-1.175625.433125-2.375.875-2.96008276 2.04928807-3.35795771 4.85537789-4.0703125 8.2421875-.60314683 3.81137462-.70183268 6.40459065.4453125 10.1328125 5.63329731 7.7457838 12.93218494 9.0390943 21.875 10.8125 13.16557336 2.673555 25.52427606 5.87436849 33.5 17.5 5.56746353 8.72443308 6.04078224 18.33958502 4.04296875 28.35546875-3.02199958 8.67962436-9.46902949 15.89722614-17.60546875 20.08203125-11.90685909 5.37092152-26.27280055 7.02596836-38.87890625 3.02734375-11.20481579-4.36132379-19.75285252-10.73985671-25.2578125-21.65234375-1.83098386-4.3172672-2.88548586-7.64406396-2.67578125-12.375 2.41509441-.67286212 4.83180356-1.33846012 7.25-2 .68191406-.19078125 1.36382812-.3815625 2.06640625-.578125 3.38960287-.92144544 6.14138351-1.421875 9.68359375-1.421875.36351562 1.10408203.36351562 1.10408203.734375 2.23046875 2.84867426 8.29402467 5.48683461 13.23190352 13.265625 17.76953125 6.82539551 2.32124937 17.11466024 2.39390692 23.6875-.6875 4.1855866-2.56594657 6.75494705-5.63984114 8.3125-10.3125.38063345-4.03471459.26532646-6.44723653-1.5-10.125-5.51493376-6.34217382-11.46151485-8.40127772-19.5-9.875-13.70259188-2.7771714-25.86320951-5.52098377-35-17-5.19777337-8.43696547-6.27438277-17.26205339-5-27 4.06419367-12.91832988 12.95863165-19.76000578 24.4375-25.8125 11.70806506-4.03329013 28.99880379-1.92609563 39.375 4.4375z" fill="#fbfdfd" transform="translate(338.8125 188.625)"/><path d="m0 0c4.37095826 4.94650779 4.58270594 9.03642389 4.54589844 15.31005859.01033767.9177118.02067535 1.83542359.03132629 2.78094483.02938842 3.01932464.03092635 6.03797776.03215027 9.05743408.01498429 2.09894079.03171196 4.1978698.05010986 6.29678345.04365753 5.51387071.0636692 11.02758237.07873535 16.54159546.01957673 5.63079222.06154617 11.26141282.10162354 16.89208984.07528493 11.04031163.12558692 22.08058481.16015625 33.12109375.38091293-.40089844.76182587-.80179687 1.15428162-1.21484375 3.98005809-4.1796441 7.99183066-8.3268773 12.02320861-12.45703125 1.49887734-1.54405253 2.98956766-3.09609763 4.47167969-4.65625 2.13609645-2.24565821 4.30030796-4.46061331 6.47192383-6.671875.65350937-.69996094 1.30701874-1.39992188 1.98033142-2.12109375 3.44661905-3.45027998 5.73883659-5.31375537 10.73085022-5.44921875 3.34964915.17562895 4.02531632.45221782 6.73022461 2.6953125 1.70299462 3.40598924 2.05130432 5.11544856 1.4375 8.875-3.60639684 6.91226061-9.75831736 12.08072755-15.60546875 17.1015625-5.21788447 4.54458951-10.07663022 9.4346354-14.95703125 14.3359375-.90685547.90298828-1.81371094 1.80597656-2.74804688 2.73632812-4.60448388 4.6111619-9.07489458 9.26698483-13.28100585 14.24609376-1.96864671 2.20854246-3.62771021 3.53730172-6.40844727 4.58007812-5.44236828.1007846-8.35783663-1.52669803-12.15890503-5.13903809-1.77364775-1.79278688-3.40888596-3.64425651-5.040802-5.56604003-3.81578676-4.39052698-7.916688-8.41927036-12.10498047-12.45117188-1.56860094-1.53163847-3.13628289-3.06421857-4.703125-4.59765625-2.44083008-2.38515511-4.8862935-4.76444379-7.34765625-7.12841797-2.3952521-2.30433534-4.7674176-4.63045428-7.13671875-6.96142578-.73846161-.69919556-1.47692322-1.39839111-2.23776245-2.11877441-3.27586618-3.25771801-5.61997684-5.68802889-6.32131958-10.35974121.05126953-3.67773438.05126953-3.67773438 1.36376953-6.67773438 3.43085171-2.55319197 5.56156639-2.88057001 9.7878418-2.78955078 6.38937551 1.73976934 10.77510829 7.63833052 15.1496582 12.35205078 1.05757836 1.09923956 2.11746019 2.19626782 3.1796875 3.29101562 4.18791737 4.34317411 8.2887359 8.74760279 12.1796875 13.36132813 2.08619857 2.79436744 2.08619857 2.79436744 4.390625 3.78515625-.00888245-1.19159225-.01776489-2.38318451-.0269165-3.61088562-.08106866-11.22680791-.14104077-22.45355648-.18033219-33.68059063-.0208792-5.77202454-.04920339-11.54381289-.09450912-17.31570148-.04344516-5.5696781-.06737679-11.13912894-.07775116-16.7089634-.0073937-2.12550306-.02183178-4.25099362-.04341126-6.37639999-.02901582-2.97605124-.03303647-5.95116211-.03118133-8.92733193-.01438111-.87969452-.02876221-1.75938903-.0435791-2.66574096.02744307-4.06572191.18040376-6.19323966 2.33856201-9.73814392 3.93616316-3.60277154 7.17890858-3.28682367 12.15911865-1.97624207z" fill="#fcfefe" transform="translate(626 230)"/><path d="m0 0c.68642578-.020625 1.37285156-.04125 2.08007812-.0625 6.87269261-.05201659 12.273204 2.13715552 17.48242188 6.6875.66773438.56460937 1.33546875 1.12921875 2.0234375 1.7109375 1.90883317 2.28128843 2.25048506 3.99510434 2.6015625 6.9140625-1.47919922.804375-1.47919922.804375-2.98828125 1.625-7.44459955 4.0804271-14.83079096 8.23798271-22.11328125 12.6015625-.60601547.36252869-1.21203094.72505737-1.83641052 1.09857178-3.04168474 1.82129916-6.07798674 3.65090275-9.10816956 5.49127197-1.11785888.67160156-2.23571777 1.34320312-3.38745117 2.03515625-1.00087646.60666504-2.00175293 1.21333008-3.03295898 1.83837891-2.53344727 1.31005859-2.53344727 1.31005859-5.53344727 1.31005859v2c-.91394531.4640625-1.82789063.928125-2.76953125 1.40625-11.86207607 6.11284105-23.30225075 12.88101246-34.75 19.7265625-1.07459473.63969727-2.14918945 1.27939453-3.25634766 1.93847656-2.17645386 1.30198286-4.3452835 2.61678414-6.50683593 3.94335938-1.04494629.63196289-2.08989258 1.26392578-3.16650391 1.91503906-.92514404.56702637-1.85028809 1.13405273-2.8034668 1.71826172-2.95030598 1.4519501-5.49553216 1.97441673-8.74731445 2.35205078 1.49003127-5.11880241 4.60943277-8.02785893 8.2980957-11.67041016.64574982-.64940048 1.29149964-1.29880096 1.95681763-1.96788025 2.13295978-2.14105431 4.2765724-4.27107535 6.42086792-6.40077209 1.4878311-1.48731233 2.97514382-2.97514339 4.46195984-4.46347046 3.11662515-3.11653547 6.23835074-6.22784105 9.36396789-9.33535766 4.00332326-3.98064644 7.99549127-7.97225884 11.98411274-11.96763039 3.06997317-3.07331725 6.14491822-6.14161959 9.22147465-9.20834541 1.47370488-1.46985947 2.94606822-2.94106527 4.41705704-4.41364289 2.05823331-2.0586048 4.12285448-4.11058058 6.18936729-6.1608696.90807152-.91178764.90807152-.91178764 1.83448792-1.84199524 6.8498448-6.76436451 12.08326482-8.74885188 21.66429138-8.81962585z" fill="#6d3522" transform="translate(621.8125 496.75)"/><path d="m0 0c.69738281.00451172 1.39476562.00902344 2.11328125.01367188 1.71227678.01172792 3.42450908.02966159 5.13671875.04882812v2l3.375.4375c3.625.5625 3.625.5625 5.625 1.5625v2h2c.375 2.1875.375 2.1875 0 5-2.75 2.5-2.75 2.5-4.421875 3.75-1.78679679 1.31930158-1.78679679 1.31930158-3.578125 3.75-2.36043197 2.95053996-5.10151737 5.08459781-8 7.5-.66.825-1.32 1.65-2 2.5-2 2.5-2 2.5-4.9375 4.9375-3.12463995 2.61449465-5.46713683 5.43475464-8.0625 8.5625-1.66666667 1.33333333-3.33333333 2.66666667-5 4-2.289917 2.48288754-4.48121185 4.9624237-6 8-1.98 0-3.96 0-6 0-.33-1.65-.66-3.3-1-5-.66 0-1.32 0-2 0-.88920895-1.40221411-1.77563038-2.80626825-2.6484375-4.21875-2.1443188-2.82603864-4.93242482-4.83457041-7.7421875-6.97265625-1.609375-1.80859375-1.609375-1.80859375-2.0703125-4.3125.58721257-3.17990534 1.54905906-3.92330319 4.0859375-5.87109375 2.795168-2.26369239 5.22283107-4.46410184 7.5-7.25 1.85974779-2.26404079 3.71184796-4.16947837 6-6 2.94153589-2.25210075 2.94153589-2.25210075 5-5.125 1.9826546-2.37918552 2.85578447-2.92651262 5.875-3.25 0-.66 0-1.32 0-2 5.55538436-3.8579058 10.12329657-4.14392452 16.75-4.0625z" fill="#53200f" transform="translate(548.75 494.9375)"/><path d="m0 0 2 1c-.99.495-.99.495-2 1 0-.66 0-1.32 0-2zm-2 2 2 1c-.77714355.77190674-1.55428711 1.54381348-2.35498047 2.33911133-2.88372431 2.86561877-5.76413343 5.7345502-8.64355469 8.60449219-1.24649376 1.24146627-2.49388375 2.48203337-3.7421875 3.72167968-1.79452325 1.78238846-3.58579453 3.56798981-5.37646484 5.35424805-.83759354.82985161-.83759354.82985161-1.69210815 1.6764679-2.34309248 2.34275238-4.34605325 4.5370242-6.19070435 7.30400085-.2265625-2.2890625-.2265625-2.2890625 0-5 1.5390625-1.7734375 1.5390625-1.7734375 3.625-3.375 2.795168-2.26369239 5.22283107-4.46410184 7.5-7.25 1.85974779-2.26404079 3.71184796-4.16947837 6-6 2.73904824-2.26269203 4.70465246-4.58455317 6.875-7.375z" fill="#481c0d" transform="translate(532 499)"/></svg>