<?xml version="1.0" encoding="UTF-8"?>
<svg version="1.1" xmlns="http://www.w3.org/2000/svg" width="800" height="800">
<path d="M0 0 C2.6233258 2.79986407 3.44393447 5.00286927 3.94921875 8.7734375 C4.07490234 9.6809375 4.20058594 10.5884375 4.33007812 11.5234375 C4.50700195 12.93496094 4.50700195 12.93496094 4.6875 14.375 C4.81705078 15.30828125 4.94660156 16.2415625 5.08007812 17.203125 C6.77853042 29.89209133 6.77853042 29.89209133 4.375 33.3125 C1.56041967 35.31233339 -0.59319587 35.69029053 -4 36 C-3.67 39.63 -3.34 43.26 -3 47 C-2.1234375 47.2371875 -1.246875 47.474375 -0.34375 47.71875 C7.70594435 50.80321232 14.76457446 58.46031158 18.69824219 66.06103516 C25.07496751 80.45770046 26.01062536 97.31861605 28.14697266 112.78173828 C28.64770591 116.4048406 29.16491712 120.02536769 29.68688583 123.64546394 C30.09368423 126.48103051 30.49118604 129.31784489 30.88611603 132.15508652 C31.16220779 134.12629174 31.44616589 136.09639025 31.73040771 138.06643677 C34.6989469 159.87009795 34.6989469 159.87009795 31.1875 170.0625 C30.85105469 171.08472656 30.51460937 172.10695313 30.16796875 173.16015625 C29 176 29 176 27.3828125 178.625 C25.22835884 182.32530459 25.68822373 185.87631762 26 190 C26.08701172 191.74216797 26.08701172 191.74216797 26.17578125 193.51953125 C26.48576303 200.24199778 26.48576303 200.24199778 29.80859375 205.7265625 C31.2225977 206.48934628 32.6556349 207.21789324 34.10546875 207.91015625 C36.7720402 209.44412209 37.51242891 211.49264681 38.34765625 214.375 C38.67056641 215.674375 38.67056641 215.674375 39 217 C39.34933594 218.216875 39.69867188 219.43375 40.05859375 220.6875 C42.46794262 229.31469067 44.81500413 238.03641499 42.125 246.875 C34.00300188 254.99699812 22.2690633 255.591259 11.49365234 257.04614258 C9.62632557 257.31140907 7.75921406 257.57819469 5.89230347 257.84637451 C0.84457475 258.56681147 -4.20597179 259.26524349 -9.25742006 259.95905519 C-14.56329933 260.69103021 -19.8665848 261.44136946 -25.17025757 262.18913269 C-34.08074923 263.44256045 -42.99309255 264.6820563 -51.90673828 265.9128418 C-62.17805731 267.33122705 -72.4464074 268.76967602 -82.7133404 270.21944505 C-92.62490676 271.61870976 -102.53819735 273.00535361 -112.45240402 274.38577843 C-116.65425684 274.97094512 -120.85551966 275.56010764 -125.05635452 276.15253639 C-130.0175649 276.85148523 -134.98021691 277.53917606 -139.94413376 278.21862793 C-141.75368597 278.46802461 -143.562745 278.72103412 -145.37121582 278.97815514 C-174.34071753 283.08913568 -174.34071753 283.08913568 -181.33483315 279.09609699 C-185.62329884 275.72331002 -187.14589553 273.34465926 -188 268 C-188.26850542 263.52355174 -188.27693417 259.04616502 -188.3125 254.5625 C-188.34150391 253.34755859 -188.37050781 252.13261719 -188.40039062 250.88085938 C-188.48094299 239.57254659 -188.48094299 239.57254659 -184 235 C-181.25 233.125 -181.25 233.125 -179 232 C-179.11433363 229.74943278 -179.24186436 227.49953326 -179.375 225.25 C-179.44460937 223.99703125 -179.51421875 222.7440625 -179.5859375 221.453125 C-180.21650548 216.19442599 -181.67011806 214.00758015 -185.75 210.75 C-195.86002455 202.14182692 -200.11326412 191.9716001 -202.015625 179.03125 C-202.17814758 177.99254761 -202.34067017 176.95384521 -202.50811768 175.88366699 C-203.01894415 172.59101633 -203.51071713 169.29591439 -204 166 C-204.32325711 163.87495273 -204.6468214 161.74995216 -204.97070312 159.625 C-205.77140337 154.32237643 -206.53964865 149.01567115 -207.29248047 143.70605469 C-207.59964041 141.55364042 -207.91188619 139.40194629 -208.22900391 137.25097656 C-214.08464757 97.52351464 -214.08464757 97.52351464 -203 81 C-200.82171377 78.1818716 -198.61907909 75.42116379 -196 73 C-195.34 73 -194.68 73 -194 73 C-194.66 69.7 -195.32 66.4 -196 63 C-199.75976562 63.14648438 -199.75976562 63.14648438 -203.51953125 63.29296875 C-206.52474153 62.93802265 -207.12147564 62.30047385 -209 60 C-209.70990401 57.15161971 -210.25536718 54.45286984 -210.6875 51.5625 C-210.8127002 50.76005859 -210.93790039 49.95761719 -211.06689453 49.13085938 C-213.04075746 35.71396252 -213.04075746 35.71396252 -212 30 C-208.37991727 27.58661151 -205.13393286 27.23445039 -200.92504883 26.65795898 C-200.07639189 26.53546091 -199.22773495 26.41296284 -198.35336113 26.2867527 C-195.4514296 25.86991977 -192.54803388 25.46432856 -189.64453125 25.05859375 C-187.52886666 24.75733621 -185.41329447 24.4554292 -183.29780579 24.15293884 C-178.53416948 23.47348158 -173.76981467 22.79934541 -169.00494385 22.12860107 C-163.44371129 21.34552547 -157.88315178 20.55791366 -152.32318115 19.76593018 C-151.58082541 19.66018649 -150.83846967 19.55444281 -150.07361829 19.44549477 C-148.54672021 19.22797822 -147.01982323 19.01045396 -145.49292731 18.79292226 C-129.98396496 16.5839481 -114.47261043 14.39224837 -98.9596386 12.21161842 C-89.53245087 10.88632551 -80.10601657 9.55590788 -70.68048257 8.21890265 C-63.93364376 7.26230381 -57.1860015 6.31151397 -50.43774062 5.36499971 C-46.44971155 4.80548085 -42.46206609 4.24351692 -38.47528648 3.67515755 C-34.75987391 3.14559677 -31.04351188 2.62328602 -27.32631874 2.10637665 C-25.33503423 1.82763099 -23.34479742 1.54143185 -21.35461426 1.25492859 C-4.90340258 -1.01389662 -4.90340258 -1.01389662 0 0 Z M-63.05712891 43.17749023 C-63.96012222 43.30268036 -64.86311554 43.42787048 -65.79347229 43.55685425 C-68.77165557 43.97069056 -71.74911479 44.38950049 -74.7265625 44.80859375 C-76.79728206 45.09787873 -78.86803243 45.38694324 -80.93881226 45.67579651 C-85.27494832 46.28142665 -89.61073669 46.88947334 -93.94628906 47.49926758 C-99.50878869 48.28147022 -105.07205457 49.05805921 -110.63558388 49.83290005 C-114.90973291 50.428725 -119.18349189 51.02730929 -123.45713425 51.62675667 C-125.50877996 51.91423146 -127.56054031 52.20088931 -129.61241531 52.48672295 C-132.47589486 52.88607881 -135.33883588 53.28909246 -138.20166016 53.69311523 C-139.05263779 53.81107956 -139.90361542 53.92904388 -140.78038025 54.05058289 C-143.96879919 54.50367302 -146.93760257 54.97920086 -150 56 C-149.67 57.32 -149.34 58.64 -149 60 C-116 55.38 -83 50.76 -49 46 C-49 44.68 -49 43.36 -49 42 C-53.76903014 41.81852083 -58.34969325 42.51056503 -63.05712891 43.17749023 Z M-28.94921875 204.09375 C-29.72183548 204.20473022 -30.49445221 204.31571045 -31.29048157 204.43005371 C-33.75644305 204.78473154 -36.22197105 205.14232907 -38.6875 205.5 C-40.3599983 205.74107792 -42.03252404 205.98196565 -43.70507812 206.22265625 C-47.80370686 206.81289821 -51.90194925 207.40575893 -56 208 C-55.67 209.98 -55.34 211.96 -55 214 C-46.49281914 213.4238126 -38.15758523 212.34207298 -29.75 210.9375 C-28.61175781 210.75123047 -27.47351563 210.56496094 -26.30078125 210.37304688 C-23.53314039 209.91952589 -20.76627031 209.46179385 -18 209 C-18 207.02 -18 205.04 -18 203 C-21.7108344 203 -25.28641425 203.5596909 -28.94921875 204.09375 Z M-113.58984375 215.875 C-115.38325195 216.14570313 -115.38325195 216.14570313 -117.21289062 216.421875 C-118.44201172 216.61265625 -119.67113281 216.8034375 -120.9375 217 C-122.19369141 217.19078125 -123.44988281 217.3815625 -124.74414062 217.578125 C-127.83016084 218.04748169 -130.91537473 218.52157612 -134 219 C-133.67 220.98 -133.34 222.96 -133 225 C-121.91306929 224.33432507 -110.97623447 222.63964829 -100 221 C-100 219.02 -100 217.04 -100 215 C-104.63739632 214.91787677 -109.00699563 215.17331991 -113.58984375 215.875 Z " fill="#00BFD8" transform="translate(225,222)"/>
<path d="M0 0 C10.22890342 8.77551606 17.0533977 22.45663791 18.921875 35.8203125 C19.46855319 43.70509413 19.9890672 52.02530551 18.125 59.75 C17.135 59.75 16.145 59.75 15.125 59.75 C15.125 58.76 15.125 57.77 15.125 56.75 C14.465 56.75 13.805 56.75 13.125 56.75 C11.41303908 54.4057469 9.81649785 52.06380423 8.25 49.625 C7.81558594 48.95984375 7.38117188 48.2946875 6.93359375 47.609375 C6.07004892 46.28682887 5.20966526 44.96221302 4.35253906 43.63549805 C3.23188993 41.91418276 2.08224056 40.21183705 0.9296875 38.51171875 C-0.54091997 36.26124368 -1.75584744 34.12065758 -2.875 31.6875 C-6.76446368 23.81881578 -12.00617384 19.79490699 -20 16.4375 C-31.26466148 14.43893103 -40.30252066 15.12065738 -49.875 21.75 C-56.40005033 27.52563861 -59.43018273 34.40321704 -60.03515625 43.03515625 C-60.56011828 57.80256638 -51.72546816 69.87856035 -43.875 81.75 C-43.36582031 82.52601563 -42.85664063 83.30203125 -42.33203125 84.1015625 C-38.61258855 89.59348036 -34.53541611 94.7769497 -30.375 99.9375 C-29.84116699 100.60289795 -29.30733398 101.2682959 -28.75732422 101.95385742 C-25.45441888 106.0056832 -21.9864734 109.71520202 -18.17773438 113.2980957 C-16.875 114.75 -16.875 114.75 -16.875 116.75 C-16.215 116.75 -15.555 116.75 -14.875 116.75 C-14.875 117.41 -14.875 118.07 -14.875 118.75 C-14.318125 118.98847656 -13.76125 119.22695313 -13.1875 119.47265625 C-10.35203247 121.03886889 -8.24777022 122.98473009 -5.875 125.1875 C-2.46316064 128.43742086 -2.46316064 128.43742086 1.48046875 130.9296875 C3.125 132.75 3.125 132.75 3.26416016 134.72583008 C3.10175209 137.32094275 2.7963597 139.86226331 2.4375 142.4375 C2.33244141 143.31083984 2.22738281 144.18417969 2.11914062 145.08398438 C1.91734879 146.74164857 1.70718423 148.39833265 1.4855957 150.0534668 C1.36659912 150.94332275 1.24760254 151.83317871 1.125 152.75 C0.95709961 153.97307861 0.78919922 155.19615723 0.61621094 156.45629883 C0.03666954 161.12805916 -0.19814392 165.79926358 -0.41015625 170.5 C-0.45313339 171.39871826 -0.49611053 172.29743652 -0.54039001 173.22338867 C-0.67564228 176.06546495 -0.80664033 178.90771843 -0.9375 181.75 C-1.02901468 183.68881542 -1.1208088 185.62761768 -1.21289062 187.56640625 C-1.43682459 192.29412473 -1.65694607 197.02200682 -1.875 201.75 C-1.22865601 201.80932709 -0.58231201 201.86865417 0.08361816 201.92977905 C6.71742019 202.54729936 13.28797639 203.44532706 19.875 204.4375 C21.58333008 204.69261353 21.58333008 204.69261353 23.32617188 204.95288086 C37.62240704 207.10318145 51.90143237 209.36781475 66.17747498 211.64790344 C70.2014693 212.28992335 74.22684673 212.92055299 78.25512695 213.53515625 C79.10405518 213.66587021 79.9529834 213.79658417 80.82763672 213.93125916 C82.44427737 214.17987991 84.06135829 214.4256621 85.67895508 214.66798401 C95.63987378 216.20746909 104.92841649 218.6427417 113.125 224.75 C113.125 225.41 113.125 226.07 113.125 226.75 C114.115 227.08 115.105 227.41 116.125 227.75 C125.1239252 236.25760457 128.97522153 251.08430156 132.8828125 262.3984375 C134.11442588 265.72146981 135.53226041 268.86723288 137.0625 272.0625 C139.77526503 277.76626237 141.89658369 283.5503176 143.94287109 289.51391602 C145.73645988 294.72120412 147.74422791 299.79400904 149.91015625 304.859375 C151.61652378 308.91954212 153.16763078 313.03470465 154.71875 317.15625 C155.9108717 320.20278324 157.15784348 323.2129218 158.4296875 326.2265625 C161.65287021 333.92731703 164.55850853 341.745533 167.47363281 349.56640625 C168.18015093 351.45937766 168.8908119 353.35080118 169.6015625 355.2421875 C170.01486816 356.34933105 170.42817383 357.45647461 170.85400391 358.59716797 C172.12299433 361.74502475 173.58039464 364.72953314 175.125 367.75 C179.34566917 377.82878858 180.99606769 387.04416053 177.375 397.5625 C176.65522171 399.30446343 175.90760147 401.03534193 175.125 402.75 C174.83625 403.40871094 174.5475 404.06742188 174.25 404.74609375 C170.14081351 412.98281131 160.98827217 419.61243811 152.45703125 422.72265625 C141.71236737 425.90900485 133.46852419 425.06284754 123.125 420.75 C109.47379662 413.12500352 104.33202106 401.79868052 99.125 387.75 C95.1102041 376.9550242 90.98563017 366.21020318 86.75 355.5 C86.17399411 354.04031404 85.5980674 352.58059684 85.0222168 351.12084961 C82.01730678 343.50861236 78.99195773 335.90500921 75.9375 328.3125 C72.78154766 320.46538159 69.72443985 312.58138783 66.6875 304.6875 C66.24962158 303.54933838 65.81174316 302.41117676 65.3605957 301.23852539 C62.25962175 293.15386526 62.25962175 293.15386526 61.125 289.75 C60.22483154 289.61424561 59.32466309 289.47849121 58.3972168 289.33862305 C54.20221031 288.70558132 50.00730992 288.07184282 45.8125 287.4375 C45.05281921 287.32262238 44.29313843 287.20774475 43.51043701 287.08938599 C35.08609051 285.81466255 26.66313626 284.53460394 18.25 283.1875 C10.84203475 282.00189017 3.42260841 280.90238746 -4 279.8125 C-14.91743794 278.20602555 -25.82059828 276.52721995 -36.7109375 274.74609375 C-40.91990439 274.058025 -45.13271514 273.40967754 -49.3515625 272.78515625 C-69.86036234 269.68387897 -69.86036234 269.68387897 -78.875 264.75 C-79.79539062 264.25113281 -80.71578125 263.75226563 -81.6640625 263.23828125 C-85.92689695 260.79974339 -89.5934498 258.45666011 -92.875 254.75 C-92.875 254.09 -92.875 253.43 -92.875 252.75 C-93.47570312 252.50765625 -94.07640625 252.2653125 -94.6953125 252.015625 C-102.68631677 247.37568704 -107.19852685 232.53907134 -109.625 224.16015625 C-110.14994918 221.69535581 -110.53302422 219.24679088 -110.875 216.75 C-111.04644531 215.67878906 -111.21789062 214.60757813 -111.39453125 213.50390625 C-113.92401096 196.59824688 -113.9681283 179.61944709 -114 162.5625 C-114.00267883 161.76029022 -114.00535767 160.95808044 -114.00811768 160.13156128 C-114.11967838 116.01268264 -106.86708067 59.76630799 -80.875 22.75 C-80.25109375 21.82960937 -79.6271875 20.90921875 -78.984375 19.9609375 C-77.375 17.6875 -77.375 17.6875 -74.875 14.75 C-74.215 14.75 -73.555 14.75 -72.875 14.75 C-72.67519531 14.19054687 -72.47539062 13.63109375 -72.26953125 13.0546875 C-70.32455488 9.84030079 -67.58897849 7.99040732 -64.5625 5.875 C-63.94093018 5.43736328 -63.31936035 4.99972656 -62.67895508 4.54882812 C-44.59488124 -7.84749436 -19.11804849 -13.8550368 0 0 Z " fill="#00BFD8" transform="translate(385.875,220.25)"/>
<path d="M0 0 C1.34309485 -0.00967334 1.34309485 -0.00967334 2.71332294 -0.0195421 C3.6929795 -0.01644489 4.67263606 -0.01334769 5.68197918 -0.01015663 C6.72584732 -0.01468774 7.76971547 -0.01921886 8.84521598 -0.02388728 C12.35429943 -0.03658003 15.86322865 -0.03490775 19.37233257 -0.03325844 C21.88370241 -0.03924065 24.39507041 -0.04604548 26.90643597 -0.05361366 C33.02705457 -0.06947279 39.14761638 -0.07572343 45.2682536 -0.07683842 C50.24379067 -0.07778873 55.21931502 -0.08189819 60.19484806 -0.08823967 C74.30216955 -0.1058539 88.4094606 -0.11507834 102.51679317 -0.11357872 C103.65764846 -0.11345885 103.65764846 -0.11345885 104.82155132 -0.11333656 C105.96380013 -0.11321392 105.96380013 -0.11321392 107.12912466 -0.1130888 C119.46879288 -0.112276 131.808339 -0.13141175 144.14797191 -0.1596133 C156.8189701 -0.18834356 169.48990875 -0.20215349 182.16094035 -0.20042574 C189.27444913 -0.19976186 196.38782995 -0.20525337 203.50130939 -0.22678185 C210.19162346 -0.24689985 216.88162239 -0.24631851 223.57196522 -0.23174858 C226.02818222 -0.22965393 228.48441596 -0.23440022 230.94060421 -0.2464695 C234.29262237 -0.26187444 237.64370234 -0.25264421 240.99569988 -0.23720741 C241.96866428 -0.24749454 242.94162867 -0.25778167 243.94407684 -0.26838052 C250.00456484 -0.20666587 253.55467861 0.74103816 258.52931499 4.25726891 C264.67255789 10.64662137 262.71185424 22.62757868 262.71681499 30.88226891 C262.72906109 31.96250328 262.74130718 33.04273766 262.75392437 34.15570641 C262.7709355 43.45512583 262.2163298 50.40307873 255.52931499 57.25726891 C254.86931499 57.58726891 254.20931499 57.91726891 253.52931499 58.25726891 C254.90750193 77.03763719 258.73242843 94.90137277 263.59181499 113.06976891 C263.82481304 113.94617027 264.05781109 114.82257164 264.29786968 115.72553062 C265.96294115 121.75881663 268.09930212 127.49257645 270.52931499 133.25726891 C271.00755718 134.39937828 271.48579937 135.54148766 271.97853374 136.71820641 C272.81087366 138.67696217 273.64422335 140.63528913 274.47853374 142.59320641 C275.52931499 145.25726891 275.52931499 145.25726891 276.52931499 149.25726891 C341.53931499 149.25726891 406.54931499 149.25726891 473.52931499 149.25726891 C473.52931499 158.82726891 473.52931499 168.39726891 473.52931499 178.25726891 C473.85931499 180.89726891 474.18931499 183.53726891 474.52931499 186.25726891 C472.57553727 188.21104663 469.58867588 187.38029657 466.98782057 187.38635021 C466.03745107 187.38343737 465.08708158 187.38052453 464.10791302 187.37752342 C463.10658826 187.37837785 462.10526351 187.37923227 461.07359558 187.38011259 C457.69089773 187.38177042 454.30824858 187.37624109 450.92555523 187.3707943 C448.51164533 187.37051246 446.09773534 187.37067008 443.68382549 187.3712368 C438.47274008 187.37146512 433.26166585 187.36861377 428.05058384 187.36299896 C420.5161521 187.35488607 412.98172642 187.35226896 405.44729079 187.35101097 C393.22438462 187.34882012 381.00148512 187.34215914 368.77858257 187.33270836 C356.90228083 187.3235351 345.02598089 187.31645384 333.14967632 187.31220055 C332.41812513 187.31193782 331.68657394 187.3116751 330.93285453 187.31140441 C327.26302771 187.31009942 323.59320089 187.3088357 319.92337406 187.30759251 C289.45868294 187.29721887 258.99399989 187.27952553 228.52931499 187.25726891 C228.5996331 186.64417901 228.66995121 186.03108912 228.74240017 185.39942074 C228.87943796 184.18914919 228.87943796 184.18914919 229.01924419 182.95442772 C229.1101873 182.15571282 229.20113041 181.35699793 229.29482937 180.53407955 C232.49168037 149.49326692 224.94196994 120.77638423 205.52931499 96.25726891 C203.09181475 93.56959313 203.09181475 93.56959313 200.52931499 91.25726891 C199.98146343 90.66687828 199.43361187 90.07648766 198.86915874 89.46820641 C180.20276075 69.61359827 153.09302239 61.11866127 126.64650249 58.93695641 C98.80257007 58.45806813 73.62631343 68.78223304 52.52931499 86.25726891 C50.98243999 87.43289391 50.98243999 87.43289391 49.40431499 88.63226891 C44.88962106 92.75438076 40.28402425 97.74785039 37.52931499 103.25726891 C36.86931499 103.25726891 36.20931499 103.25726891 35.52931499 103.25726891 C35.32306499 104.04101891 35.11681499 104.82476891 34.90431499 105.63226891 C33.72164661 108.75021283 32.49973896 110.96350707 30.71290874 113.72992516 C27.30362645 119.34304296 25.2132066 125.08645943 23.21681499 131.31976891 C22.87070171 132.34392906 22.52458843 133.36808922 22.16798687 134.42328453 C18.2405749 146.40457055 18.40032171 157.83283131 18.46681499 170.31976891 C18.47183919 171.96494984 18.47640047 173.61013225 18.48048687 175.25531578 C18.49142158 179.25600388 18.5086357 183.25661979 18.52931499 187.25726891 C11.30276007 187.28256064 4.0762165 187.3001111 -3.15037251 187.31220055 C-5.61033778 187.31723879 -8.07030005 187.3240695 -10.53025532 187.33270836 C-14.05988525 187.34479613 -17.5894757 187.3505022 -21.11912251 187.35492516 C-22.22436268 187.36008644 -23.32960285 187.36524773 -24.46833515 187.37056541 C-25.48924244 187.37064095 -26.51014973 187.37071648 -27.5619936 187.3707943 C-28.91434605 187.37412521 -28.91434605 187.37412521 -30.29401875 187.37752342 C-32.47068501 187.25726891 -32.47068501 187.25726891 -34.47068501 186.25726891 C-34.2861817 171.09445153 -32.00304353 156.98496345 -28.47068501 142.25726891 C-28.24219868 141.29385582 -28.01371235 140.33044273 -27.77830219 139.33783531 C-22.80698601 118.64745645 -15.9034636 98.70343482 -8.23631001 78.87445641 C-4.15785126 69.31279879 -4.15785126 69.31279879 -2.47068501 59.25726891 C-3.52256001 58.97883141 -3.52256001 58.97883141 -4.59568501 58.69476891 C-8.62187637 56.68167322 -11.12409365 54.09911533 -13.47068501 50.25726891 C-14.2909806 47.01774793 -14.29130658 43.92623827 -14.23240376 40.59711266 C-14.23577244 39.68901344 -14.23914112 38.78091423 -14.24261189 37.84529686 C-14.24231423 35.93495554 -14.22717775 34.02456483 -14.19797993 32.11444664 C-14.15824237 29.19897751 -14.17730994 26.28804931 -14.20310688 23.37250328 C-14.19554837 21.50985553 -14.1845955 19.6472178 -14.16990376 17.78461266 C-14.18037991 16.4859552 -14.18037991 16.4859552 -14.1910677 15.16106224 C-14.09427713 10.99234295 -13.80687032 8.12270113 -11.17698383 4.78680992 C-7.5213639 1.36995127 -5.00385401 0.00912753 0 0 Z " fill="#00BFD8" transform="translate(99.47068500518799,505.74273109436035)"/>
<path d="M0 0 C14.38734215 11.45841967 14.38734215 11.45841967 19.5625 18.5625 C19.5625 19.2225 19.5625 19.8825 19.5625 20.5625 C20.2225 20.5625 20.8825 20.5625 21.5625 20.5625 C22.64404297 21.94848633 22.64404297 21.94848633 23.8046875 23.89453125 C24.22927246 24.60456299 24.65385742 25.31459473 25.09130859 26.04614258 C38.54632631 49.32278639 42.59271105 72.87250336 36.21728516 99.13378906 C33.76832362 108.21740924 30.05460631 116.90124246 24.5625 124.5625 C23.98886719 125.41070313 23.41523437 126.25890625 22.82421875 127.1328125 C8.13231059 148.27267234 -12.8509765 161.14288347 -37.90234375 165.87109375 C-41.26627392 166.36554587 -41.26627392 166.36554587 -43.4375 167.5625 C-45.03197464 167.64650529 -46.62990545 167.66977467 -48.2265625 167.66015625 C-49.16757812 167.65693359 -50.10859375 167.65371094 -51.078125 167.65039062 C-52.06296875 167.64201172 -53.0478125 167.63363281 -54.0625 167.625 C-55.05507813 167.62048828 -56.04765625 167.61597656 -57.0703125 167.61132812 C-59.5261016 167.59952145 -61.98177104 167.583054 -64.4375 167.5625 C-64.4375 166.9025 -64.4375 166.2425 -64.4375 165.5625 C-65.0459375 165.55992187 -65.654375 165.55734375 -66.28125 165.5546875 C-88.22828905 164.58643578 -106.63026986 150.54322411 -121.6015625 135.6640625 C-123.4375 133.5625 -123.4375 133.5625 -123.4375 131.5625 C-124.0975 131.5625 -124.7575 131.5625 -125.4375 131.5625 C-141.14674514 111.94587917 -146.82530427 87.1961241 -144.4375 62.5625 C-142.74266192 52.12067227 -138.84803186 42.13429255 -134.4375 32.5625 C-133.7775 32.5625 -133.1175 32.5625 -132.4375 32.5625 C-132.36144531 31.86125 -132.28539062 31.16 -132.20703125 30.4375 C-131.22375068 26.76392388 -129.45764847 24.55562014 -127.125 21.5625 C-125.95517578 20.0465625 -125.95517578 20.0465625 -124.76171875 18.5 C-123.99472656 17.530625 -123.22773437 16.56125 -122.4375 15.5625 C-121.72207031 14.61375 -121.00664063 13.665 -120.26953125 12.6875 C-119.66496094 11.98625 -119.06039062 11.285 -118.4375 10.5625 C-117.7775 10.5625 -117.1175 10.5625 -116.4375 10.5625 C-116.4375 9.9025 -116.4375 9.2425 -116.4375 8.5625 C-114.10439799 6.56572828 -111.77103261 4.70687524 -109.3125 2.875 C-108.59126953 2.33625244 -107.87003906 1.79750488 -107.12695312 1.24243164 C-100.56667722 -3.54194135 -93.87706749 -7.19166554 -86.4375 -10.4375 C-85.71433594 -10.76105469 -84.99117187 -11.08460938 -84.24609375 -11.41796875 C-82.33012875 -12.20595436 -80.42002006 -12.83707964 -78.4375 -13.4375 C-77.62667969 -13.71464844 -76.81585937 -13.99179687 -75.98046875 -14.27734375 C-50.21980987 -21.76069445 -21.39802673 -15.67179422 0 0 Z M-80.2890625 50.55078125 C-86.55309797 58.49654053 -90.29908622 68.3957826 -89.4375 78.5625 C-87.31443571 88.88338188 -84.02616435 97.99830653 -75.4375 104.5625 C-69.4249853 108.18961484 -63.566236 111.28831785 -56.4375 111.5625 C-55.15875 111.624375 -53.88 111.68625 -52.5625 111.75 C-41.97931624 111.50670842 -32.45959473 107.75360753 -25 100.04296875 C-17.80671515 90.80012663 -15.43041332 81.15283089 -16.4375 69.5625 C-17.68423852 60.94307319 -21.74131754 52.25825679 -28.4375 46.5625 C-45.64008677 36.02288698 -65.63609043 34.81583866 -80.2890625 50.55078125 Z " fill="#00BFD8" transform="translate(731.4375,596.4375)"/>
<path d="M0 0 C1.41732422 1.05960938 1.41732422 1.05960938 2.86328125 2.140625 C3.56839844 2.75421875 4.27351562 3.3678125 5 4 C5 4.66 5 5.32 5 6 C5.55945313 6.20753906 6.11890625 6.41507813 6.6953125 6.62890625 C9.82395934 8.49018598 11.72651862 11.06900932 13.875 13.9375 C14.31408691 14.51725586 14.75317383 15.09701172 15.20556641 15.69433594 C19.03443217 20.8530803 22.18305435 26.22392847 25 32 C25.37769531 32.73476563 25.75539063 33.46953125 26.14453125 34.2265625 C35.34826181 53.18555803 35.42706334 78.18671536 29.3125 98 C23.02642451 115.47949616 12.58287045 129.41099812 -1 142 C-1.66 142 -2.32 142 -3 142 C-3 142.66 -3 143.32 -3 144 C-14.08802187 153.70577524 -30.53848132 159.31025954 -44.8125 161.5703125 C-46.9685568 161.78270474 -46.9685568 161.78270474 -48 163 C-51.38830809 163.25292226 -54.79087724 163.18523407 -58.1875 163.1875 C-59.13431641 163.19974609 -60.08113281 163.21199219 -61.05664062 163.22460938 C-66.16941285 163.23531302 -70.18692648 162.87926185 -75 161 C-77.4362735 160.47345937 -79.87389185 159.95311991 -82.3125 159.4375 C-104.17668708 154.29343635 -124.21939743 138.88861038 -136 120 C-138.12343362 116.39118372 -140.10557113 112.73378714 -142 109 C-142.3815625 108.24976563 -142.763125 107.49953125 -143.15625 106.7265625 C-153.04860538 85.96760463 -152.85523689 61.73038919 -145.75 40.21484375 C-136.81474489 15.60847769 -118.00840598 -2.70074409 -94.875 -14.125 C-61.60517359 -28.774518 -28.07874673 -21.06896087 0 0 Z M-85 44 C-85 44.66 -85 45.32 -85 46 C-85.66 46 -86.32 46 -87 46 C-93.94669022 57.68704173 -97.0823646 68.26338616 -93.76171875 81.734375 C-90.35342704 91.87185804 -84.30360301 98.37434785 -75.0703125 103.48046875 C-66.32597803 107.80813556 -57.55644427 107.67311589 -48 106 C-38.91004448 102.87565543 -31.41061272 97.77126953 -26.75 89.25 C-21.62582308 77.85312375 -20.71428168 68.1101208 -24.60546875 56.2578125 C-27.8104976 48.77043418 -33.57442922 41.62997233 -41 38 C-56.4971615 31.83774287 -71.94851801 32.46459925 -85 44 Z " fill="#00BFD8" transform="translate(282,601)"/>
<path d="M0 0 C3.37492629 -0.05845196 6.74972087 -0.09374742 10.125 -0.125 C11.07632813 -0.14175781 12.02765625 -0.15851562 13.0078125 -0.17578125 C18.1360186 -0.21139379 22.17885224 0.07154089 27 2 C28.51013672 2.35578125 28.51013672 2.35578125 30.05078125 2.71875 C50.11065581 7.52351037 67.82613289 20.83888659 78.6875 38.3125 C91.20432836 59.42591402 91.20432836 59.42591402 89.57421875 68.32421875 C89.38472656 68.87722656 89.19523438 69.43023437 89 70 C87.92685547 70.05607422 87.92685547 70.05607422 86.83203125 70.11328125 C78.97009244 70.63198614 71.62698576 72.06809859 64 74 C63.27039063 74.165 62.54078125 74.33 61.7890625 74.5 C51.71887868 76.8017563 42.08438974 79.7636029 35.5625 88.125 C30.96110941 97.3672781 34.43593657 112.77868587 36.55078125 122.54296875 C37.15666892 125.85691086 37.20931048 129.07044245 37.25 132.4375 C37.27578125 133.71496094 37.3015625 134.99242187 37.328125 136.30859375 C36.97550983 140.27551437 36.09647239 142.63867253 34 146 C22.13320042 154.10415581 5.1964211 151.29443414 -8.1875 149.6875 C-9.18475098 149.56995361 -10.18200195 149.45240723 -11.20947266 149.33129883 C-27.61193824 147.21297413 -44.24702607 142.00889504 -54.89453125 128.6171875 C-68.31503969 110.13926641 -71.22029069 89.47627607 -69 67 C-66.99410201 54.64080885 -61.47517225 43.00178046 -54 33 C-53.34 33 -52.68 33 -52 33 C-52 32.01 -52 31.02 -52 30 C-49.8671875 27.64453125 -49.8671875 27.64453125 -47 25 C-46.07445312 24.13761719 -45.14890625 23.27523437 -44.1953125 22.38671875 C-36.42203137 15.46247028 -28.40319923 10.434649 -19 6 C-18.22785156 5.63003906 -17.45570313 5.26007812 -16.66015625 4.87890625 C-11.31213065 2.5931448 -5.73550566 2.30575306 0 2 C0 1.34 0 0.68 0 0 Z " fill="#00BFD8" transform="translate(399,36)"/>
<path d="M0 0 C1.80078125 0.50390625 1.80078125 0.50390625 4 2 C5.25590828 4.66154771 6.24945164 7.16405302 7.1875 9.9375 C7.62642578 11.17995483 7.62642578 11.17995483 8.07421875 12.44750977 C9.07008343 15.29168892 10.03834019 18.14407792 11 21 C11.53681396 22.59328125 11.53681396 22.59328125 12.08447266 24.21875 C13.61456288 28.7764089 15.13675714 33.3365219 16.64306641 37.90209961 C19.3067082 45.97500965 22.06931829 54.00640032 24.96875 61.99780273 C27 67.67910694 27 67.67910694 27 71 C27.87527344 71.27585937 28.75054688 71.55171875 29.65234375 71.8359375 C43.76624145 76.74368723 56.66736975 85.40931115 68 95 C68.64710938 95.52464844 69.29421875 96.04929687 69.9609375 96.58984375 C73.57596645 99.56553352 76.62253061 102.74204767 79.6015625 106.3515625 C81.11849913 108.19224883 81.11849913 108.19224883 83.5 110.4375 C92 119.15 92 119.15 92 123 C92.66 123 93.32 123 94 123 C103.26866382 136.13264504 110.07305551 152.81787694 115 168 C116.10472656 168.01417969 117.20945312 168.02835938 118.34765625 168.04296875 C149.59178794 168.83710889 178.15429932 178.42350491 201 200 C202.07454343 200.88577228 203.15656738 201.76265366 204.25 202.625 C207.5158597 205.4455152 210.49499798 208.47345461 213 212 C213 212.66 213 213.32 213 214 C213.66 214 214.32 214 215 214 C216.18920898 215.46533203 216.18920898 215.46533203 217.49609375 217.5078125 C218.21055664 218.61769531 218.21055664 218.61769531 218.93945312 219.75 C219.43380859 220.53375 219.92816406 221.3175 220.4375 222.125 C220.92798828 222.88554688 221.41847656 223.64609375 221.92382812 224.4296875 C228.51860653 234.75349715 228.51860653 234.75349715 229.5625 239.625 C229 242 229 242 226.3125 244.375 C223 246 223 246 220.5703125 245.953125 C216.94752564 244.60972075 215.75241793 242.5212992 213.5625 239.375 C208.14259448 231.6766011 202.78638184 225.43497425 195.125 219.875 C194.45597656 219.37613281 193.78695313 218.87726563 193.09765625 218.36328125 C184.80649844 212.24475824 176.63597035 207.70021262 167 204 C166.26007813 203.71125 165.52015625 203.4225 164.7578125 203.125 C154.33482832 199.34912649 143.0432218 197.5600366 132 197 C131.27941406 196.95875 130.55882812 196.9175 129.81640625 196.875 C102.60520166 196.07613895 74.45732284 207.73772823 54.72265625 226.1875 C52.92963629 227.89737468 52.92963629 227.89737468 52 230 C51.01 230 50.02 230 49 230 C48.64808594 228.93265625 48.29617188 227.8653125 47.93359375 226.765625 C47.43498383 225.26038751 46.9362806 223.75518094 46.4375 222.25 C46.20998047 221.5590625 45.98246094 220.868125 45.74804688 220.15625 C43.80112844 214.29021005 41.76567936 208.45667653 39.71875 202.625 C36.1133266 192.35137454 32.57685002 182.05508538 29.0625 171.75 C28.60686676 170.41536713 28.60686676 170.41536713 28.14202881 169.05377197 C24.2787654 157.73633131 20.4521741 146.40826144 16.69116211 135.05639648 C13.59095977 125.72085293 10.34409833 116.43783504 7.09912109 107.15185547 C1.79670882 91.9465817 -3.47133786 76.72952067 -8.51220703 61.43530273 C-9.9548583 57.07411011 -11.43972102 52.73247623 -12.984375 48.40625 C-13.31091064 47.48980713 -13.63744629 46.57336426 -13.97387695 45.62915039 C-14.59954349 43.88150063 -15.23058593 42.1357627 -15.86791992 40.39233398 C-16.14740479 39.61188721 -16.42688965 38.83144043 -16.71484375 38.02734375 C-16.96355225 37.34406006 -17.21226074 36.66077637 -17.46850586 35.95678711 C-18 34 -18 34 -18 30 C-26.03417691 31.75536638 -33.4652967 34.8059878 -41.06835938 37.8984375 C-47.90557769 40.56577536 -54.43544983 42.92898173 -61.5234375 39.93359375 C-65.99208321 36.3228526 -68.32695358 33.54196627 -70 28 C-70 27.01 -70 26.02 -70 25 C-69.13246094 25.0721875 -68.26492188 25.144375 -67.37109375 25.21875 C-57.9479778 25.89249811 -48.51853219 26.1897088 -39.07302856 26.28710938 C-37.70221539 26.30389921 -36.33146838 26.32770823 -34.96090698 26.35888672 C-26.66587024 26.53857992 -20.25695439 26.17386659 -13 22 C-12.113125 21.608125 -11.22625 21.21625 -10.3125 20.8125 C-4.08545873 15.93184603 -1.41372584 9.51782231 -0.2265625 1.87109375 C-0.15179687 1.25363281 -0.07703125 0.63617188 0 0 Z " fill="#00BFD8" transform="translate(550,368)"/>
<path d="M0 0 C6.49734938 3.87105237 10.69615458 9.59048162 14.125 16.1875 C20.62862987 28.2040348 28.55754374 42.68674225 39.76171875 50.98828125 C41.5 52.3125 41.5 52.3125 42.5 55.3125 C45.47001793 58.08413887 48.69427113 60.53866463 51.89111328 63.04345703 C53.46057832 64.28140533 55.00991931 65.544733 56.55859375 66.80859375 C73.40169568 80.40569605 92.37408824 88.84528104 113.5 93.3125 C114.17836914 93.46348145 114.85673828 93.61446289 115.55566406 93.77001953 C126.31869685 96.11541948 136.63624804 96.58927571 147.64624023 96.11425781 C156.08795619 95.87300784 163.19792367 97.54637078 170 102.75 C172.44240764 105.25346783 173.54817351 106.98110728 174.5 110.3125 C175.16 110.3125 175.82 110.3125 176.5 110.3125 C178.88538844 118.81044633 179.61842835 126.2147794 175.5 134.3125 C170.55058447 141.17860096 164.5575878 144.22058882 156.5 146.3125 C152.49895324 146.79057242 148.58682841 146.78997206 144.5625 146.6875 C143.47928467 146.67243408 142.39606934 146.65736816 141.2800293 146.6418457 C122.62059856 146.26255002 105.10225653 143.63359312 87.1875 138.375 C86.36314453 138.13426758 85.53878906 137.89353516 84.68945312 137.64550781 C79.07310379 135.94433684 73.81357404 133.7922467 68.5 131.3125 C67.07310527 130.66885255 65.64602416 130.02561813 64.21875 129.3828125 C56.5377146 125.86289687 49.38319662 122.246915 42.5 117.3125 C40.58353534 116.0830184 38.66685132 114.85387868 36.75 113.625 C30.42269286 109.40679524 24.70439584 104.64546481 19.00341797 99.63232422 C17.63761758 98.43331205 16.25894486 97.24900268 14.87890625 96.06640625 C6.42465441 88.69429865 -1.82417559 80.36124778 -8.5 71.3125 C-8.5 70.6525 -8.5 69.9925 -8.5 69.3125 C-9.16 69.3125 -9.82 69.3125 -10.5 69.3125 C-12.2265625 67.1953125 -12.2265625 67.1953125 -14.125 64.4375 C-14.75664062 63.53257812 -15.38828125 62.62765625 -16.0390625 61.6953125 C-17.5 59.3125 -17.5 59.3125 -17.5 57.3125 C-18.16 57.3125 -18.82 57.3125 -19.5 57.3125 C-20.56567383 55.91064453 -20.56567383 55.91064453 -21.70703125 53.9453125 C-22.12670166 53.22875488 -22.54637207 52.51219727 -22.97875977 51.77392578 C-23.63896118 50.61739502 -23.63896118 50.61739502 -24.3125 49.4375 C-24.76101318 48.6626123 -25.20952637 47.88772461 -25.67163086 47.08935547 C-36.39733375 28.42020285 -36.39733375 28.42020285 -35.5 18.3125 C-33.11636202 10.32030206 -27.10847019 3.31614534 -19.8671875 -0.83984375 C-13.53362467 -3.10780272 -6.10671261 -2.82204143 0 0 Z " fill="#00BFD8" transform="translate(366.5,242.6875)"/>
<path d="M0 0 C9.35992761 7.5466575 12.20822921 19.20234406 13.7421875 30.70703125 C13.9278125 31.86203125 14.1134375 33.01703125 14.3046875 34.20703125 C16.36119264 51.75366379 15.24547818 72.64182926 4.6171875 87.39453125 C2.14940741 90.5092699 0.10229613 92.54088162 -4.0078125 93.04296875 C-17.93759824 93.21039406 -28.3606335 88.43051759 -38.4453125 78.95703125 C-47.04839887 69.94345965 -52.37560444 58.75499452 -52.7578125 46.26953125 C-52.35811557 33.54369678 -47.64107232 22.39816534 -38.828125 13.16015625 C-29.93191287 4.88586776 -12.44379732 -7.12611923 0 0 Z " fill="#00BFD8" transform="translate(636.2578125,340.29296875)"/>
<path d="M0 0 C8.59293543 15.04612805 10.28565894 31.36806847 5.91137695 48.0715332 C3.05510526 57.90659264 -1.67860717 68.70127402 -9 76 C-9.66 76 -10.32 76 -11 76 C-11.04125 76.5775 -11.0825 77.155 -11.125 77.75 C-12.44641709 81.14792966 -14.94897555 82.10030553 -18 84 C-19.3303125 85.175625 -19.3303125 85.175625 -20.6875 86.375 C-33.93460079 97.44821758 -51.7138622 101.67232508 -68.65234375 100.29101562 C-86.10948177 98.12702763 -102.38029541 89.16899853 -114 76 C-114 75.34 -114 74.68 -114 74 C-113.37657715 74.11593506 -112.7531543 74.23187012 -112.11083984 74.35131836 C-94.66314533 77.57368809 -94.66314533 77.57368809 -77 79 C-76.07703125 79.03996094 -75.1540625 79.07992187 -74.203125 79.12109375 C-64.40520588 79.36179408 -51.03796422 79.3496247 -43 73 C-38.06023644 66.21180879 -39.2974933 55.01398033 -40 47 C-40.65828002 43.18273253 -41.47411518 39.42867207 -42.31640625 35.6484375 C-43.6628605 28.46221884 -44.44979734 21.11437947 -41.3125 14.375 C-30.85874283 3.63870885 -14.73234116 -0.88002923 0 0 Z " fill="#00BFD8" transform="translate(481,113)"/>
</svg>
